<?xml version="1.0" encoding="utf-8"?>
<!-- Generator: Adobe Illustrator 19.1.0, SVG Export Plug-In . SVG Version: 6.00 Build 0)  -->
<svg version="1.1" id="Layer_1" xmlns="http://www.w3.org/2000/svg" xmlns:xlink="http://www.w3.org/1999/xlink" x="0px" y="0px"
	 viewBox="0 0 256 256" style="enable-background:new 0 0 256 256;" xml:space="preserve">
<style type="text/css">
	.st0{fill:#EFDAC1;}
	.st1{fill:#E9D2B6;}
	.st2{fill:#FFD2BF;}
	.st3{fill:#673B30;}
	.st4{fill:#F5C76E;}
	.st5{fill:#FCDD79;}
	.st6{fill:#FCDC79;}
	.st7{fill:#EDBA5F;}
	.st8{fill:#F4C66E;}
	.st9{fill:#FFC7B3;}
	.st10{fill:#ECB85F;}
	.st11{fill:#F3C66D;}
	.st12{fill:#FADA78;}
	.st13{fill:#E2A359;}
</style>
<g>
	<path class="st0" d="M28.4,207.6c-2.2-1.4-3.2-4-5.2-5.7c2.1-2.6,2.1-3.6,0.1-6.7c-7.6-11.4-12.4-23.8-14.3-37.4
		c-0.6-4-0.8-7.9-0.9-11.9c0-1.3,0.4-1.8,1.7-1.7c0.7,0.1,1.3,0,2,0c56.8,0,113.6,0,170.4,0c4.3,0,5.3-0.7,6-4.3c3.7,0,7.3,0,11,0
		c0.6,3.3,1.6,4.2,4.9,4.3c2,0.1,4.1,0.1,6.1,0.2c-1,4.9-0.6,9.9-1.4,14.8c-1.3,8.3-3.6,16.2-7,23.8c-5.5,12.3-13.2,23.1-23.4,32.1
		c-8.8,7.8-18.5,13.9-29.6,18c-1.1,0.4-2.7,0.4-3.2,1.9c-6.9,0.1-13.8,0.2-20.7,0.1c-10,0-20,0.1-30-0.2c-22.3-0.7-41.6-8.7-58-23.8
		c-0.9-0.8-1.9-1.7-2.7-2.5C32.5,206.9,30.6,206.5,28.4,207.6z"/>
	<path class="st1" d="M145.6,235c0.5-1.6,2.1-1.5,3.2-1.9c11-4.1,20.7-10.2,29.6-18c10.2-9,17.9-19.8,23.4-32.1
		c3.4-7.6,5.6-15.5,7-23.8c0.8-4.9,0.4-9.9,1.4-14.8c3.2-0.1,6.3-0.1,9.5-0.1c8.8,0,17.6,0,26.5,0c1.2,0,2.2-0.1,2.2,1.7
		c-0.4,22.1-7.7,41.5-22.2,58.2c-10.9,12.6-24.4,21.5-40.3,26.7c-9.2,3-18.8,4.4-28.5,4.3C153.4,235.1,149.5,235,145.6,235z"/>
	<path class="st2" d="M199.1,140c-3.7,0-7.3,0-11,0c-1.2-3.1-1.9-3.5-5.7-3.5c-56.9,0-113.8,0-170.7,0c-4.1,0-3.5,0.6-3.6-3.5
		c0-2.3,0-4.7,0-7c0.1-3.2,1.3-4.4,4.4-4.5c0.5,0,1,0,1.5,0c64.2,0,128.5,0,192.7,0c1,0,2,0.1,3,0.1c0.8,4.9,0.5,9.9,0.5,14.8
		c-2,0-3.9,0.2-5.9,0.1C201.6,136.3,199.8,137.3,199.1,140z"/>
	<path class="st3" d="M28.6,214.2c14.1,14,30.9,23.1,50.5,27c6.6,1.3,13.4,1.8,20.1,1.8c19.3,0,38.7,0,58,0c27.2,0,50.6-9.5,70-28.5
		c15.6-15.4,24.8-33.2,27.9-55.1c0.2-1.3,0.1,1.2,0.8-4.9c0.8-6.2,0-21,0-31.5c-2-8.9-9.4-10.2-17.7-9.4c2.5-3.7,4.5-7.1,5.9-10.7
		c1.5-3.7,2.4-7.6,2.9-11.6c1.4-12.6-6.9-25-19.2-28.3c-7.3-2-14.1-1.2-20.8,3.1c-0.3-4.9-1.7-9.3-4.2-13.4
		c-5.6-9.5-18.5-14.6-29.1-11.5c-5.5,1.6-9.7,5.1-13.2,9.3c-4.2,5-7.4,10.7-11.4,15.8c-0.9,1.1-1.5,1.4-2.8,0.7
		c-3.5-1.9-7.4-2.9-11.3-3.7c-5.8-1.2-11.6-2.5-17.5-1.3c-2.7,0.5-5.2,1.6-8,2.8c1.3-6.3,1.5-12.4,0.6-18.4
		c-1.5-10-4.9-19.2-11.5-26.9c-6.5-7.6-14.8-8.5-21.7-2.5c-3.7,3.2-6.2,7.2-7.3,11.9c-1.7,7.1-2.4,14.3-1.4,21.6
		c0.2,1.6-0.1,2.2-1.6,2.7c-4,1.2-7.9,2.6-11.8,4c-1.4,0.5-2.4,0.4-3.8-0.2c-13.7-6.3-30-2.4-38.7,9.7C5.5,76,3.6,86.9,5.9,98.5
		c1,5.3,3.2,10.1,5.7,15c-3,0.3-5.7,1.2-7.8,3c-1.9,1.6-3,3.9-4,6c0,10.5,0,28.8,0.3,31.8s0.9,7.1,1.7,10.1
		C5.2,177,9.5,189,16.8,199.9 M203.1,83c2.1-4.7,5.3-8.4,9.6-11.1c2.2-1.4,4.7-2.1,7.4-1.9c12-0.5,21,10.3,18.8,22.6
		c-1.3,7.4-4.6,13.8-9.5,19.5c-1,1.1-1.9,1.6-3.4,1.5c-2.3-0.1-4.6-0.1-7-0.1c-16,0-32,0.1-47.9,0.1c-3.4,0-6.8,0-10.2-0.2
		c4.8-1,9.6-2.1,14.2-3.9C188,104.4,197.4,95.6,203.1,83z M158.5,67c3.2-4.7,6.2-9.7,10.3-13.8c3-3,6.4-5,10.8-4.9
		c11-1.1,20.9,9.3,19.4,20.7c-2,14.3-9.8,24.6-22.4,31.3c-4.3,2.3-9,3.7-13.9,4.5c-16.5,3.4-30.9-1.2-43.9-12.1
		c0.9-0.3,1.5-0.5,2.2-0.7C136.8,88.8,149.3,80.4,158.5,67z M114.4,71.3c2.4-1.1,4.8-1.8,7.4-1.8c7,0,13.6,1.6,20.3,4.2
		c-8.6,7-18.3,10.6-28.9,11.7c-0.6,0.1-1.1,0.1-1.5-0.5C108.6,80.1,106.9,74.6,114.4,71.3z M77.3,30.4c0.9-3.5,3-6.3,5.9-8.4
		c3-2.1,8.7-0.4,10,3.1c0.1,0.3,0,0.8-0.1,1.2C91.3,33,82.6,44.1,75.8,48C75.3,41.9,75.8,36.1,77.3,30.4z M62.3,62.7
		c9.1-2.5,17.4-6.6,24.3-13.1c4.8-4.5,8.6-9.7,11.7-15.8c3.3,7,4.6,14.1,4.4,21.5c-0.1,5.1-1.3,10-3.1,14.8c-0.4,1-0.6,1.5-1.9,1.2
		c-11.8-3.1-21.4,0.6-29.5,9.5c-0.9-0.9-0.8-2.1-1.1-3.1c-1.3-4.5-2.8-8.9-5.8-12.6C60.1,63.5,60.8,63.1,62.3,62.7z M14.1,80.8
		c2.6-9.6,10.1-17.2,18.5-18.4l0.2,0c0.3-0.1,0.6-0.2,0.8-0.3c13-2.1,22.9,4.6,26,17.6c2,8.1,2.7,16.4,4.5,24.4
		c0.5,2.3,1.4,4.2,4,4.9c3.8-0.9,4.6-2.4,3.9-6.4c-0.7-3.4-2-6.6-0.9-10.3c2-7,8.9-13.1,16-13.9c5-1.1,9.5-0.1,13.6,3
		c0.5,0.4,1,0.8,1.3,1.5c4.4,11.1,13.1,18,22.9,23.7c5.9,3.4,12.4,5.4,19.3,6.5c-0.4,0.6-0.9,0.4-1.2,0.4c-20.4,0-40.8,0-61.2,0
		c-0.4,0-0.8-0.1-1.2-0.1c-3.7,0-7.4,0-11,0c-14,0-28,0-42,0c-7.2,0.4-7.3,0.3-10.4-6.2C13.2,98.8,11.5,90.1,14.1,80.8z
		 M226.1,204.2c-10.9,12.6-24.4,21.5-40.3,26.7c-9.2,3-18.8,4.4-28.5,4.3c-3.9,0-7.8-0.1-11.7-0.2c-6.9,0.1-13.8,0.2-20.7,0.1
		c-10,0-20,0.1-30-0.2c-22.3-0.7-41.6-8.7-58-23.8c-0.9-0.8-1.9-1.7-2.7-2.5l-11.1-13.6c-7.5-11.4-12.3-23.7-14.2-37.2
		c-0.6-4-0.8-7.9-0.9-11.9c0-1.3,0.4-1.2,1.7-1.1c0.7,0.1,1.2,0.1,1.9,0.1c56.8,0,192.2,0,192.2,0s4.2-0.2,6.2-0.1
		c3.2-0.1,6.4-0.1,9.5-0.1c8.8,0,17.7,0,26.5,0c1.2,0,2.2-0.5,2.2,1.3C247.8,168.1,240.5,187.5,226.1,204.2z M246.5,136.5
		c-12.1-0.1-24.5,0-36.6-0.1c-2,0-6.1,0-6.1,0s-135.5,0-192.4,0c-4.1,0-3.4,0.6-3.5-3.5c0-2.3,0-4.7,0.1-7c0.1-3.2,1.3-4.3,4.4-4.4
		c0.5,0,1,0,1.5,0c64.2,0,128.5,0,192.7,0c1,0,2,0,3,0c11.6,0,23.1-0.1,34.7-0.1c2.5,0,3.9,1.3,3.9,3.8c0.1,3.2,0,6.3,0.1,9.5
		C248.3,136.1,247.8,136.5,246.5,136.5z"/>
	<path class="st4" d="M162.6,104.8c-16.5,3.4-30.9-1.2-43.9-12.1c0.9-0.3,1.5-0.5,2.2-0.7c15.9-3.3,28.4-11.7,37.6-25.1
		c3.2-4.7,6.2-9.7,10.3-13.8c3-3,6.4-5,10.8-4.9c0.4,1.1,1.3,1.7,2.1,2.5c6.1,6,7.9,13.5,6.2,21.5c-3,13.9-10.8,24.6-23.6,31.2
		C163.6,103.8,162.8,103.9,162.6,104.8z"/>
	<path class="st5" d="M33.6,62.1c13-2.1,22.9,4.6,26,17.6c2,8.1,2.7,16.4,4.5,24.4c0.5,2.3,1.4,4.2,4,4.9c0.5,1.5,1,3,1.5,4.4
		c-14,0-28,0-42,0c-4.7-8-7.7-16.5-7-26c0.6-8.3,3.2-15.7,9.1-21.8c1-1,2.5-1.6,2.9-3.2c0,0,0.2,0,0.2,0
		C33.1,62.3,33.4,62.2,33.6,62.1z"/>
	<path class="st6" d="M219.1,113.4c-16,0-32,0.1-47.9,0.1c-3.4,0-6.8,0-10.2-0.2c4.8-1,9.6-2.1,14.2-3.9c12.9-5.1,22.3-13.9,28-26.5
		c2.1-4.7,5.3-8.4,9.6-11.1c2.2-1.4,4.7-2.1,7.4-1.9c0.1,1.4,1.2,2,2,2.7c4.5,4.3,6.3,9.6,6.5,15.6c0.1,5.4-1.6,10.4-3.7,15.3
		C223.3,107.1,220.9,110,219.1,113.4z"/>
	<path class="st7" d="M87.1,78.5c5-1.1,9.5-0.1,13.6,3c0.5,0.4,1,0.8,1.3,1.5c4.4,11.1,13.1,18,22.9,23.7c5.9,3.4,12.4,5.4,19.3,6.5
		c-0.4,0.6-0.9,0.4-1.2,0.4c-20.4,0-40.8,0-61.2,0c-0.4,0-0.8-0.1-1.2-0.1c0-2.2-1.1-4.2-1.5-6.2c-1.8-8.2-1.8-16.1,3.4-23.3
		C83.9,81.9,85.9,80.6,87.1,78.5z"/>
	<path class="st8" d="M98.4,33.8c3.3,7,4.6,14.1,4.4,21.5c-0.1,5.1-1.3,10-3.1,14.8c-0.4,1-0.6,1.5-1.9,1.2
		c-11.8-3.1-21.4,0.6-29.5,9.5c-0.9-0.9-0.8-2.1-1.1-3.1c-1.3-4.5-2.8-8.9-5.8-12.6c-1.3-1.6-0.6-2,0.9-2.4
		c9.1-2.5,17.4-6.6,24.3-13.1C91.4,45.1,95.2,39.9,98.4,33.8z"/>
	<path class="st9" d="M210.1,136.3c0-4.9,0.3-9.9-0.5-14.8c11.6,0,23.1-0.1,34.7-0.1c2.5,0,3.9,1.3,3.9,3.8c0.1,3.2,0,6.3,0.1,9.5
		c0,1.3-0.5,1.7-1.7,1.7C234.4,136.4,222.2,136.4,210.1,136.3z"/>
	<path class="st10" d="M162.6,104.8c0.1-0.9,1-1.1,1.6-1.4c12.9-6.6,20.6-17.3,23.6-31.2c1.7-8-0.1-15.5-6.2-21.5
		c-0.8-0.7-1.7-1.4-2.1-2.5c11-1.1,20.9,9.3,19.4,20.7c-2,14.3-9.8,24.6-22.4,31.3C172.2,102.6,167.5,104,162.6,104.8z"/>
	<path class="st4" d="M219.1,113.4c1.7-3.4,4.2-6.3,5.7-9.8c2.1-4.9,3.9-9.9,3.7-15.3c-0.2-6-2-11.3-6.5-15.6
		c-0.8-0.8-1.9-1.4-2-2.7c12-0.5,21,10.3,18.8,22.6c-1.3,7.4-4.6,13.8-9.5,19.5c-1,1.1-1.9,1.6-3.4,1.5
		C223.8,113.4,221.5,113.5,219.1,113.4z"/>
	<path class="st11" d="M32.6,62.4c-0.4,1.6-1.9,2.2-2.9,3.2c-5.9,6.1-8.5,13.5-9.1,21.8c-0.7,9.5,2.3,18,7,26
		c-7.2,0.4-7.3,0.3-10.4-6.2c-4.1-8.5-5.7-17.2-3.1-26.5C16.7,71.2,24.2,63.6,32.6,62.4z"/>
	<path class="st12" d="M142.1,73.7c-8.6,7-18.3,10.6-28.9,11.7c-0.6,0.1-1.1,0.1-1.5-0.5c-3-4.7-4.7-10.1,2.7-13.5
		c2.4-1.1,4.8-1.8,7.4-1.8C128.8,69.5,135.4,71.1,142.1,73.7z"/>
	<path class="st12" d="M75.8,48c-0.4-6.1,0-11.9,1.5-17.6c0.9-3.5,3-6.3,5.9-8.4c3-2.1,8.7-0.4,10,3.1c0.1,0.3,0,0.8-0.1,1.2
		C91.3,33,82.6,44.1,75.8,48z"/>
	<path class="st13" d="M87.1,78.5c-1.2,2.1-3.3,3.4-4.7,5.4c-5.1,7.2-5.2,15.1-3.4,23.3c0.5,2.1,1.5,4.1,1.5,6.2c-3.7,0-7.4,0-11,0
		c-0.5-1.5-1-3-1.5-4.4c3.8-0.9,4.6-2.4,3.9-6.4c-0.7-3.4-2-6.6-0.9-10.3C73.1,85.3,80,79.2,87.1,78.5z"/>
	<path class="st11" d="M33.6,62.1c-0.3,0.1-0.6,0.2-0.8,0.3C33.1,62.3,33.4,62.2,33.6,62.1z"/>
</g>
</svg>
