<?xml version="1.0" encoding="utf-8"?>
<!-- Generator: Adobe Illustrator 19.1.0, SVG Export Plug-In . SVG Version: 6.00 Build 0)  -->
<svg version="1.1" id="Layer_1" xmlns="http://www.w3.org/2000/svg" xmlns:xlink="http://www.w3.org/1999/xlink" x="0px" y="0px"
	 viewBox="0 0 256 256" style="enable-background:new 0 0 256 256;" xml:space="preserve">
<style type="text/css">
	.st0{fill:#FF6547;}
	.st1{fill:#2BC016;}
	.st2{fill:#FCDD79;}
	.st3{fill:#B7918D;}
	.st4{fill:#F15B39;}
	.st5{fill:#24A30D;}
	.st6{fill:#8E6561;}
	.st7{fill:#E2A359;}
	.st8{fill:#F5C76E;}
	.st9{fill:#673B30;}
</style>
<g>
	<path class="st0" d="M39.2,66.4c6.5-3.1,13.5-3.5,20.5-2.7c7,0.8,13.3,3.5,19,7.7c4.2,3.1,8.2,3.2,12.4-0.1
		c18.8-14.3,45.7-9,59.4,11.1c9.9,14.5,13,30.6,10.4,47.8c-1.4,9.3-4.9,17.8-9.3,25.9c-3.2,5.9-6.5,11.6-9.6,17.5
		c-0.7,1.4-1.4,1.8-3.1,1.4c-8.7-2-17.3-4.2-26-5.8c-1.8-0.3-3.6-0.3-5.5-0.4c-3.3-0.1-4.3,0.8-4.9,4c-2.5,0.1-4.9,0.7-7.3,1.6
		c-2.1-2.5-3.4-2.8-6.2-1.3c-6.1,3.2-11.2,7.5-14.9,13.3c-0.9,1.4-1.7,1.6-3.2,0.8c-8-4.4-14.9-9.9-19.5-18.1
		c-2.6-4.7-6.9-6.2-12-6.3c-0.2-2.2-1.4-4-2.3-6c-5.8-13.2-8.9-27-9.2-41.4c-0.1-5.5,0.2-10.9,1-16.4c1.2-9.2,3.5-18,7.3-26.5
		C37.5,70.6,39,68.7,39.2,66.4z"/>
	<path class="st1" d="M166.3,176.2c5.4,3.7,11.2,6.4,17.7,7.6c20.9,3.6,41.6-10,46.1-31.3c0.5-2.5-0.7-4.1-3-5c0-2.5,0-4.9,0-7.4
		c3-1.5,3.5-2.5,2.7-5.7c-4.4-18-20.7-30.6-39.3-30.4c-1.7,0-3.5,0.1-5.2,0.1c0.1-2-0.9-3.7-1.4-5.5c-3.7-12.8-10.4-23.5-21.6-31.1
		c0.6-9.3,0.3-18.7,4.4-27.4c3.5-7.3,8.3-13.3,16.2-16.1c8.8-3.1,18.5,0,25,8c5.8,7.2,8.6,15.6,8.8,24.7c0.3,10.9,1.9,21.5,6.5,31.5
		c2.4,5.2,5.3,10.2,9.3,14.4c15.4,15.8,18.9,34.6,14.3,55.4c-2.9,13.3-9.3,24.7-20,33.4c-2.6,2.1-5,2.7-8.4,1.9
		c-17.9-4.3-35.8-8.3-53.7-12.4C164.4,179,165.9,177.7,166.3,176.2z"/>
	<path class="st2" d="M95.4,174.5c2.3-0.9,4.8-1.5,7.3-1.6c0.7,3.1,3.1,3.7,5.8,3.5c2.1-0.1,2.7,0.4,2.4,2.6
		c-0.8,5.5-1.2,11.1-1.9,16.6c-0.4,3,0.8,5,3.1,5.3c2.3,0.3,3.9-1.1,4.3-4.1c0.7-5.5,1.3-11.1,1.9-16.6c0.2-1.6,0.6-2.2,2.3-1.8
		c10.9,2.5,21.9,5,32.8,7.5c1.3,0.3,1.8,0.8,1.6,2.2c-0.4,2.4-0.6,4.8-0.7,7.2c-0.2,2.9,0.9,4.5,3.1,4.8c2.3,0.3,4-1.3,4.3-4.1
		c0.3-1.9,0.6-3.8,0.6-5.7c0-1.8,0.7-2.2,2.4-1.8c11.8,2.8,23.6,5.5,35.5,8.2c5.6,1.3,11.2,2.6,16.8,3.8c1.6,0.3,2.1,1,1.9,2.7
		c-1,7.9-1.8,15.9-2.7,23.8c-7.9,0-15.7,0-23.6,0c-0.6-1.8-1.8-3-3.8-3c-2,0-3.1,1.3-3.7,3.1c-2.5-0.5-4.9,0.4-7.4,0.4
		c-9.9,0-19.9,0-29.8,0c-2.4-3.6-5.1-3.6-7.4,0c-5.8,0-11.7,0-17.5,0c0.2-2.1,0.4-4.3,0.6-6.4c0.2-2.8-1-4.5-3.3-4.7
		c-2.3-0.2-3.8,1.2-4.2,3.9c-0.3,2.4-0.6,4.8-0.8,7.2c-3.5,0.2-6.9-0.2-10.4-0.8c-8.6-1.5-15.6-6-21-12.7c-3.5-4.2-6.1-9-6.9-14.6
		c2.4-8.7,7.8-15.1,15.7-19.3C94.7,178.8,96.2,177.3,95.4,174.5z"/>
	<path class="st3" d="M227.1,140c0,2.5,0,4.9,0,7.4c-2.5,0.1-3.8,1.4-4.5,3.8c-3.6,13.6-12.3,22.1-26,24.9c-9.8,2-19-0.2-26.6-7.1
		c3.7-5.3,6.4-11,9.3-16.7c6.4-12.8,9.1-26.2,7.3-40.5c8.3-1.3,15.8,0.8,22.6,5.4c6.7,4.5,11,10.7,13,18.5
		C223,138.1,224.1,140.1,227.1,140z"/>
	<path class="st4" d="M39.2,66.4c-0.3,2.4-1.7,4.3-2.7,6.3c-3.8,8.5-6.1,17.3-7.3,26.5c-0.7,5.4-1.1,10.9-1,16.4
		c0.3,14.4,3.4,28.2,9.2,41.4c0.9,2,2.1,3.8,2.3,6c-2.1,0.7-4.3,1.2-6.1,2.6c-3,2.3-4.6,5.4-5.1,9.7c-1.9-3.5-3.6-6.5-5.3-9.5
		c-4.7-8.7-9.9-17.1-12.7-26.7c-3-10.5-3.6-21.1-1.6-31.8c0.6-3.4,0.2-4.4-2.5-6c0.7-2.4,1.1-4.8,2.3-7c2.9,0.6,4.3-1,5.4-3.3
		c2.9-6.4,6.9-12.1,12.2-16.8C30.1,70.7,34.3,67.8,39.2,66.4z"/>
	<path class="st5" d="M30.6,225.3c0-1,0.7-2.1,1.7-3.2c2.9-3.2,6.2-6.1,9.8-8.5c1.7-1.1,3.1-2.4,2.5-4.7c-0.6-2.3-2.4-2.8-4.6-3.1
		c-8.9-0.9-17.9-2-26.8-3c-3.2-0.4-5.3-2.7-5-5.4c0.3-2.9,3-4.7,6.2-4.3c9.2,1,18.4,2.1,27.5,3.1c1.7,0.2,3.2-0.2,4.1-1.7
		c1-1.6,0.7-3.2-0.5-4.6c-3.3-3.6-6.3-7.3-8.6-11.6c-1.1-2.1-1.2-4.1,0.5-6c1.4-1.6,3.2-1.9,5.2-1.3c1.3,0.4,2.1,1.3,2.7,2.4
		c5.3,9.3,13.2,15.8,22.5,20.6c1.4,0.7,1.9,1.4,1.4,3.1c-1.5,4.4-2,8.9-1.6,13.5c0.2,2-0.5,2.7-2.4,3.2c-8.5,2.3-16.2,5.9-22.8,11.9
		c-1.5,1.3-2.8,2.8-4.3,4.1c-1.5,1.3-3.3,1.4-5.1,0.4C31.4,229.2,30.6,227.8,30.6,225.3z"/>
	<path class="st6" d="M186.6,111.8c1.8,14.3-0.9,27.7-7.3,40.5c-2.9,5.7-5.6,11.4-9.3,16.7c-4.5-3-7.1-7.3-9.3-12
		c-0.4-0.9,0.1-1.8,0.5-2.6c4.9-10.1,8-20.7,8.1-32.1c0-2.1,0.7-3.7,2.6-5C176.4,114.3,181.2,112.1,186.6,111.8z"/>
	<path class="st7" d="M192.5,226.9c7.9,0,15.7,0,23.6,0c0.1,2.4,1,4,3.5,4.4c2.1,0.3,3.4-1.2,4.2-4.4c1.1,0,2.2,0,3.2,0
		c7.3,0.3,14.5,0.3,20.6-4.5c0.3,8.4-6.7,16.5-15.3,17.6c-5.1,0.7-10.1,0.3-15.2,0.3c-7.8,0.1-15.7-0.1-23.5,0.1
		c-2.5,0.1-2.6-0.9-2.4-2.9C191.8,234,192.1,230.5,192.5,226.9z"/>
	<path class="st7" d="M76.7,199.3c0.8,5.6,3.4,10.4,6.9,14.6c5.5,6.6,12.4,11.1,21,12.7c3.4,0.6,6.9,1,10.4,0.8
		c-0.4,3.9-0.9,7.8-1.2,11.6c-0.1,1-0.4,1.4-1.5,1.5c-10.6,0.5-20-1.9-27.9-9.5C76.5,223.1,72.9,209.1,76.7,199.3z"/>
	<path class="st5" d="M162.3,67.4c11.2,7.6,17.8,18.3,21.6,31.1c0.5,1.8,1.5,3.5,1.4,5.5c-5.7,1.1-11.2,2.8-16.3,6.1
		c-1.1-6.8-2.9-13.1-5-19.3c-1.3-3.8-5.3-6.8-4.2-11.3C160.6,75.5,161.5,71.5,162.3,67.4z"/>
	<path class="st7" d="M147.8,227.4c9.9,0,19.9,0,29.8,0c2.5,0,4.9-0.9,7.4-0.4c-0.4,3.9-0.9,7.8-1.2,11.7c-0.1,1.4-0.7,1.8-2,1.8
		c-11.1,0-22.3,0-33.4,0c-1.6,0-1.7-0.6-1.6-1.9C147.1,234.8,147.8,231.2,147.8,227.4z"/>
	<path class="st8" d="M247.7,222.4c-6.2,4.8-13.4,4.8-20.6,4.5c-1.1,0-2.2,0-3.2,0c0.8-7.7,1.6-15.3,2.4-23c0.1-0.7,0.3-1.1,1.1-1
		c6.7,1.3,13.3,2.7,17.4,8.9C246.8,215,248,218.5,247.7,222.4z"/>
	<path class="st5" d="M77.3,40.9c2,5.3,2.1,4.5-2.8,5.2c-8.5,1.3-15.9-1.4-22.7-6.3c-7-5-15.3-15.4-18.9-23.7
		c3.1-0.6,6.2-0.9,9.3-0.6c0.1,0.5,0.1,1,0.3,1.4c4.3,6.1,8.9,12,14.9,16.4C63.4,37.7,69.7,41,77.3,40.9z"/>
	<path class="st1" d="M77.3,40.9c-7.6,0.1-13.9-3.2-19.8-7.5c-6-4.5-10.7-10.3-14.9-16.4c-0.3-0.4-0.2-0.9-0.3-1.4
		C58.9,15.5,73.3,26,77.3,40.9z"/>
	<path class="st7" d="M122.8,227.4c5.8,0,11.7,0,17.5,0c-0.4,3.7-0.8,7.4-1.1,11.1c-0.1,1.3-0.4,1.9-1.9,1.9c-4.8-0.1-9.6,0-14.4,0
		c-1.1,0-1.7-0.1-1.5-1.5C121.9,235.1,122.3,231.3,122.8,227.4z"/>
	<path class="st5" d="M166.3,176.2c-0.4,1.6-1.9,2.8-1.5,4.7c-4.7-1.1-9.4-2.2-14.1-3.2c-1.6-0.3-1.8-0.9-1-2.3
		c2.1-3.6,4-7.2,6.2-11.2C158.7,169,162.4,172.7,166.3,176.2z"/>
	<path class="st9" d="M235,197.1c-0.6-0.2-1.3-0.3-2.1-0.5c1.9-1.9,3.7-3.6,5.4-5.5c9.6-10.7,15-23.4,17-37.5c0,0,1.6-9,0.8-17.9
		c0,0-1.3-7.2-2.3-10.8c-2.4-8.5-6-16.4-12.1-22.9c-6.8-7.3-12-15.4-14.8-25.1c-2-6.9-2.5-14-2.8-21.2c-0.5-11-3.9-20.9-11.3-29.2
		C199,11,177.5,11.9,165,28.4c-6.1,8.1-9.2,17.3-9.6,27.3c-0.3,5.8-0.4,11.6-1.8,17.6c-19.2-18.8-40.6-23-64.6-9.7
		c0-0.9,0-1.7,0-2.5c0-14.3,0-28.7,0-43c0-0.7-0.1-1.3-0.2-2c-0.2-2.3-1.9-3.9-3.9-3.9c-2.1,0-3.7,1.7-3.7,4.2
		c-0.1,4.5,0,8.9-0.5,13.6c-0.7-1.1-1.5-2.3-2.2-3.4c-8.7-12.5-21-17.9-35.8-18.5C37.4,7.9,32.2,8.7,27,9.6c-3,0.5-4.5,2.8-3.2,5.4
		c7.4,15.6,16.9,29.5,33.6,36.6c6.5,2.7,13.4,3.3,20.3,1.8c3.4-0.7,3.4-0.7,3.4,2.8c0,1.9-0.1,3.8,0,5.7c0.1,2.1-0.6,1.8-1.9,1
		c-7.9-5-16.6-7.1-25.9-6.9c-14.8,0.4-27,6.4-36.8,17.4c-3.7,4.2-6.7,8.9-9.1,14c0,0,0,0,0,0S7.4,87.6,7.2,88c0,0,0,0,0,0
		c-0.2,0.5-0.4,0.9-0.5,1.3C5.3,92.6,2.6,99.9,1,108.3c0,0.2-0.1,0.4-0.1,0.7c-0.4,1.8-0.8,3.5-0.8,3.5s-1.1,7.5,0,14.7
		c0.4,3.2,1.1,5.6,1.7,8.4c1.8,8.4,5,16.2,9.1,23.6c4.6,8.5,9.3,16.9,13.9,25.3c0.4,0.8,0.8,1.6,1.4,2.6c-3.7-0.4-7.2-0.7-10.6-1.2
		c-7.5-1-14,3.6-14.8,10.7c-0.8,7.1,4.3,13.2,11.8,14c6.1,0.7,12.2,1.3,18.7,2.1c-2.2,2-3.9,3.7-5.5,5.7c-4.1,5.2-3.7,12.5,1.2,16.9
		c5,4.5,12.6,4.6,17.1-0.3c6.4-7,14.4-11,23.4-13.7c1.6-0.5,2.3-0.2,2.9,1.4c5.8,15.8,21.7,25.8,38.3,25.6c40-0.3,80-0.2,119.9-0.2
		c13,0,23.6-8.1,26.2-19.9C257.9,213.9,249.5,200.7,235,197.1z M74.6,46.3c-8.5,1.3-15.9-1.4-22.7-6.3c-7-5-15.3-15.4-18.9-23.7
		c3.1-0.6,6.2-0.9,9.3-0.6c16.6,0,31.1,10.5,35.1,25.4C79.4,46.4,79.4,45.5,74.6,46.3z M159.7,79.8c1-4,1.8-8.1,2.6-12.2
		c0.6-9.3,0.3-18.7,4.4-27.4c3.5-7.3,8.3-13.3,16.2-16.1c8.8-3.1,18.5,0,25,8c5.8,7.2,8.6,15.6,8.8,24.7c0.3,10.9,1.9,21.5,6.5,31.5
		c2.4,5.2,5.3,10.2,9.3,14.4c15.4,15.8,18.9,34.6,14.3,55.4c-2.9,13.3-9.3,24.7-20,33.4c-2.6,2.1-5,2.7-8.4,1.9
		c-17.9-4.3-35.8-8.3-53.7-12.4c-4.7-1.1-9.4-2.2-14.1-3.2c-1.6-0.3-1.8-0.9-1-2.3c2.1-3.6,4-7.2,6.2-11.2c2.8,4.9,6.5,8.5,10.4,12
		c5.4,3.7,11.2,6.4,17.7,7.6c20.9,3.6,41.6-10,46.1-31.3c0-0.2,0-0.3,0.1-0.5c0.8-3.9,1.2-9.4-0.1-15.9c0-0.5-0.2-1.1-0.3-1.8
		c-0.3-1.3-0.7-2.6-1.2-3.8c-0.5-1.5-1-2.7-1.4-3.5c-6.5-14-20.8-23.3-36.7-23c-1.7,0-3.5,0.1-5.2,0.1c-5.7,1.1-11.2,2.8-16.3,6.1
		c-1.1-6.8-2.9-13.1-5-19.3C162.6,87.2,158.6,84.3,159.7,79.8z M161.2,154.5c4.9-10.1,8-20.7,8.1-32.1c0-2.1,0.7-3.7,2.6-5
		c4.5-3,9.2-5.2,14.7-5.6c8.3-1.3,15.8,0.8,22.6,5.4c6.6,4.4,10.9,10.5,12.9,18.1c0.6,2.7,1.8,9.4,0.3,16.6
		c-3.7,13.2-12.3,21.5-25.8,24.2c-9.8,2-19-0.2-26.6-7.1c-4.5-3-7.1-7.3-9.3-12C160.4,156.2,160.8,155.4,161.2,154.5z M69.3,197.2
		c-1.5,4.4-2,8.9-1.6,13.5c0.2,2-0.5,2.7-2.4,3.2c-8.5,2.3-16.2,5.9-22.8,11.9c-1.5,1.3-2.8,2.8-4.3,4.1c-1.5,1.3-3.3,1.4-5.1,0.4
		c-1.7-0.9-2.5-2.4-2.5-4.9c0-1,0.7-2.1,1.7-3.2c2.9-3.2,6.2-6.1,9.8-8.5c1.7-1.1,3.1-2.4,2.5-4.7c-0.6-2.3-2.4-2.8-4.6-3.1
		c-8.9-0.9-17.9-2-26.8-3c-3.2-0.4-5.3-2.7-5-5.4c0.3-2.9,3-4.7,6.2-4.3c9.2,1,18.4,2.1,27.5,3.1c1.7,0.2,3.2-0.2,4.1-1.7
		c1-1.6,0.7-3.2-0.5-4.6c-3.3-3.6-6.3-7.3-8.6-11.6c-1.1-2.1-1.2-4.1,0.5-6c1.4-1.6,3.2-1.9,5.2-1.3c1.3,0.4,2.1,1.3,2.7,2.4
		c5.3,9.3,13.2,15.8,22.5,20.6C69.4,194.9,69.9,195.5,69.3,197.2z M71.2,187.5c-8-4.4-14.9-9.9-19.5-18.1c-2.6-4.7-6.9-6.2-12-6.3
		c-2.1,0.7-4.3,1.2-6.1,2.6c-3,2.3-4.6,5.4-5.1,9.7c-1.9-3.5-3.6-6.5-5.3-9.5c-4.7-8.7-9.9-17.1-12.7-26.7
		c-3-10.5-3.6-21.1-1.6-31.8c0,0,0-0.1,0-0.1c0.9-3.8,2.6-10.6,5.2-16.4c2.9-6.3,6.8-12,12.1-16.6c3.8-3.4,7.9-6.2,12.9-7.7
		c6.5-3.1,13.5-3.5,20.5-2.7c7,0.8,13.3,3.5,19,7.7c4.2,3.1,8.2,3.2,12.4-0.1c18.8-14.3,45.7-9,59.4,11.1
		c9.9,14.5,13,30.6,10.4,47.8c-1.4,9.3-4.9,17.8-9.3,25.9c-3.2,5.9-6.5,11.6-9.6,17.5c-0.7,1.4-1.4,1.8-3.1,1.4
		c-8.7-2-17.3-4.2-26-5.8c-1.2-0.2-2.5-0.3-3.7-0.3c-9.2-0.8-16.6,2.5-18.8,3.7c-0.4,0.1-0.8,0.3-1.3,0.6
		c-6.1,3.2-11.2,7.5-14.9,13.3C73.4,188.1,72.7,188.3,71.2,187.5z M247.7,222.6c0.3,8.4-6.7,16.5-15.3,17.6
		c-5.1,0.7-10.1,0.3-15.2,0.3c-7.8,0.1-15.7-0.1-23.5,0.1c-2.5,0.1-2.6-0.9-2.4-2.9c0.5-3.5,0.7-7.1,1.1-10.7c-0.6-1.8-1.8-3-3.8-3
		c-2,0-3.1,1.3-3.7,3.1c-0.4,3.9-0.9,7.8-1.2,11.7c-0.1,1.4-0.7,1.8-2,1.8c-11.1,0-22.3,0-33.4,0c-1.6,0-1.7-0.6-1.6-1.9
		c0.4-3.7,1.1-7.4,1.1-11.2c-2.4-3.6-5.1-3.6-7.4,0c-0.4,3.7-0.8,7.4-1.1,11.1c-0.1,1.3-0.4,1.9-1.9,1.9c-4.8-0.1-9.6,0-14.4,0
		c-1.1,0-1.7-0.1-1.5-1.5c0.6-3.9,1-7.7,1.5-11.6c0.2-2.1,0.4-4.3,0.6-6.4c0.2-2.8-1-4.5-3.3-4.7c-2.3-0.2-3.8,1.2-4.2,3.9
		c-0.3,2.4-0.6,4.8-0.8,7.2c-0.4,3.9-0.9,7.8-1.2,11.6c-0.1,1-0.4,1.4-1.5,1.5c-10.6,0.5-20-1.9-27.9-9.5c-8-7.9-11.6-21.9-7.8-31.7
		c2.4-8.7,7.8-15.1,15.7-19.3c5.3-3.1,11.2-3.6,14.1-3.7c0.6,0.1,1.2,0.1,1.9,0c2.1-0.1,2.7,0.4,2.4,2.6c-0.8,5.5-1.2,11.1-1.9,16.6
		c-0.4,3,0.8,5,3.1,5.3c2.3,0.3,3.9-1.1,4.3-4.1c0.7-5.5,1.3-11.1,1.9-16.6c0.2-1.6,0.6-2.2,2.3-1.8c10.9,2.5,21.9,5,32.8,7.5
		c1.3,0.3,1.8,0.8,1.6,2.2c-0.4,2.4-0.6,4.8-0.7,7.2c-0.2,2.9,0.9,4.5,3.1,4.8c2.3,0.3,4-1.3,4.3-4.1c0.3-1.9,0.6-3.8,0.6-5.7
		c0-1.8,0.7-2.2,2.4-1.8c11.8,2.8,23.6,5.5,35.5,8.2c5.6,1.3,11.2,2.6,16.8,3.8c1.6,0.3,2.1,1,1.9,2.7c-1,7.9-1.8,15.9-2.7,23.8
		c0.1,2.4,1,4,3.5,4.4c2.1,0.3,3.4-1.2,4.2-4.4c0.8-7.7,1.6-15.3,2.4-23c0.1-0.7,0.3-1.1,1.1-1c6.7,1.3,13.3,2.7,17.4,8.9
		C246.8,215.2,248,218.7,247.7,222.6z"/>
</g>
</svg>
