<?xml version="1.0" encoding="utf-8"?>
<!-- Generator: Adobe Illustrator 19.1.0, SVG Export Plug-In . SVG Version: 6.00 Build 0)  -->
<svg version="1.1" id="Layer_1" xmlns="http://www.w3.org/2000/svg" xmlns:xlink="http://www.w3.org/1999/xlink" x="0px" y="0px"
	 viewBox="0 0 256 256" style="enable-background:new 0 0 256 256;" xml:space="preserve">
<style type="text/css">
	.st0{fill:#05E2D1;}
	.st1{fill:#64F2E8;}
	.st2{fill:#11CEBB;}
	.st3{fill:#6FC1CA;}
	.st4{fill:#2FAFBE;}
</style>
<g>
	<path class="st0" d="M206.5,90.4c-3.1,3.1-6.3,6.2-9.4,9.5c-1.3,1.3-2,1.2-3.3,0C183.2,90.2,171,83,157.2,79
		c-34.9-10.1-66.3-3.2-94,20.3c-1.9,1.6-3,2.1-4.9,0c-4.5-4.8-9.4-9.3-14.1-14c-0.9-0.8-1.8-1.4-0.4-2.7
		c7.3-6.5,14.9-12.7,23.6-17.2c0.6,0.1,1.1,0,1.3-0.7c0,0,0,0,0,0c0.9-0.2,1.8-0.2,2.6-0.6c12.3-5.3,25.2-8.3,38.5-9.2
		c12.2-0.9,24.4-0.1,36.4,2.6c17.1,3.8,32.6,10.9,46.8,21.1C197.8,82.2,202.7,85.7,206.5,90.4z"/>
	<path class="st1" d="M27.6,206.7c-4.5,0.1-9.1,0.3-13.2-2.2c-6-3.6-7.6-9.5-8.4-15.8c-2.3-18.3-0.9-36.2,4.7-53.7
		c5.6-17.5,14.7-32.9,27.1-46.4c1.2-1.4,2-1.6,3.4-0.1c4.6,4.7,9.4,9.3,14.2,13.8c1.8,1.7,1.7,2.9,0.1,4.6
		c-7.9,8.3-13.8,18-18.1,28.6c-3.5,8.6-5.7,17.5-6.7,26.8c-1.6,14.6,0.2,28.7,5,42.4c0.7,2-0.1,2.2-1.7,2.1
		C32,206.7,29.8,206.7,27.6,206.7z"/>
	<path class="st2" d="M242,204.2c-2.4,1.8-5.1,2.5-8,2.6c-3.9,0-7.7-0.1-11.6,0.1c-2.3,0.1-2.6-0.5-1.9-2.7
		c3.9-11.2,5.9-22.9,5.4-34.8c-1-23.7-9.2-44.7-25.2-62.4c-1.8-2-1.8-3.1,0.2-4.8c3-2.6,5.7-5.4,8.5-8.2c3.1,1,4.3,3.9,6.2,6.1
		c7.6,9.1,13.7,19.1,18.5,30c6.2,14.3,9.5,29.3,10.3,44.8C244.9,184.7,243.8,194.5,242,204.2z"/>
	<path class="st3" d="M242,204.2c1.8-9.7,2.9-19.5,2.3-29.3c-0.8-15.5-4.1-30.5-10.3-44.8c-4.7-10.9-10.9-20.9-18.5-30
		c-1.8-2.2-3.1-5.1-6.2-6.1c1.9-2,3.9-3.9,5.8-5.9c1.1-1.2,1.8-1,2.8,0.1c9.4,10.2,17,21.5,22.6,34.1c8.6,19.1,11.6,39.2,10.2,60
		c-0.3,4.1-0.9,8.2-1.7,12.3C248.2,198.6,245.9,202,242,204.2z"/>
	<path class="st2" d="M206.5,90.4c-3.8-4.8-8.7-8.3-13.5-11.8c-14.1-10.2-29.7-17.3-46.8-21.1c-12-2.7-24.2-3.4-36.4-2.6
		c-13.3,0.9-26.2,3.9-38.5,9.2c-0.8,0.3-1.7,0.4-2.6,0.6c8-5.1,16.9-8.6,26-10.9c39.5-10.2,75.8-3.5,108.6,21.1
		c3.1,2.3,5.9,5,8.8,7.4c1.1,0.9,1.1,1.6,0.1,2.6C210.3,86.7,208.4,88.6,206.5,90.4z"/>
	<path class="st4" d="M39.7,211.9c-5.1,0-10.8-0.1-17.2-0.2c-11.1-0.2-19.4-7.3-21.1-18.1c-4.1-25-1.3-48.7,8.1-70.4
		c17.4-40,47.1-65.3,88.2-75.1c11.1-2.6,22-4,32.5-4c31.5,0,60.1,11.8,85,35c29.1,27.1,42.6,61.8,40.1,103.3
		c-0.2,4-0.9,8.1-1.6,11.8c-1.8,10.3-10,17.3-20.5,17.4c-1.2,0-2.4,0-3.6,0l-2.4,0l0,0c-4.6,0.1-8.2,0.1-11.5,0.1
		c-0.3,0-1.2,0-1.7-0.8c-0.7-1-0.5-2.9,0.5-5.8l0.2-0.5c3-8,4.8-16.3,5.4-25.2c0.1-2,0.2-3.3-0.2-3.8c-0.4-0.4-1.7-0.4-3.7-0.5
		l-0.5,0c-0.2,0-0.5,0-0.7,0c-1.9-0.2-3-1.3-3-3c0.1-1.6,1.2-2.6,3-2.6c0.3,0,0.6,0,1,0c0.4,0,0.9,0,1.3,0c0.5,0,0.9,0,1.3,0.1
		c0.2,0,0.4,0,0.5,0c0.4,0,0.7-0.1,0.8-0.2c0.1-0.1,0.3-0.5,0.3-1.5c-0.3-7.9-1.7-15.9-4.5-24.7c-0.3-0.9-0.4-1-0.5-1
		c-0.1,0-0.3,0-0.7,0.3c-0.7,0.4-1.4,0.6-2,0.6c-1,0-1.9-0.6-2.4-1.6c-0.4-0.8-0.5-1.6-0.2-2.3c0.3-0.8,1.1-1.5,2.4-1.9
		c0.7-0.2,0.8-0.4,0.9-0.5c0.1-0.2,0-0.6-0.3-1.2c-3.6-8.3-8.6-16.2-14.7-23.6c-0.3-0.4-0.6-0.6-0.8-0.6c-0.1,0-0.4,0.1-0.9,0.5
		c-0.8,0.7-1.6,1.4-2.5,2c-0.5,0.4-1,0.8-1.5,1.2c-0.7,0.5-1.6,1.2-2.6,1.2c-0.8,0-1.5-0.4-2.1-1.2c-1.7-2.3,0.6-4,1.3-4.5
		c0.4-0.3,0.8-0.6,1.2-1c0.7-0.6,1.3-1.1,2.1-1.6c0.8-0.5,0.8-0.7,0.8-0.8c0-0.1,0-0.4-0.8-1.1c-5.7-5.6-12.1-10.4-19-14.3
		c-1.7-1-2.9-1.6-3.5-1.6c-0.6,0-1.2,0.9-2.6,3.1c0,0.1-0.1,0.2-0.1,0.2c-0.1,0.2-0.2,0.4-0.4,0.6c-0.5,0.6-1.2,1.3-2.3,1.3
		c-0.4,0-0.8-0.1-1.3-0.3c-1.5-0.8-2-2.3-1.3-3.8l0.1-0.1c0.5-1,1-2.1,1.7-3.1c0.4-0.7,0.4-0.9,0.4-0.9c0,0-0.1-0.2-0.8-0.5
		c-9-3.6-18.1-5.8-26.9-6.6c-1.3-0.1-2.4-0.2-3.3-0.2c-2.3,0-2.4,0.2-2.5,5.5c0,0.5,0,0.6,0,1.1c-0.1,1.9-1.1,2.7-2.8,2.7h-0.1
		c-1.6,0-2.7-0.8-2.7-2.5c-0.1-1.8-0.2-3.4,0-5.2c0.1-0.8,0-1.2-0.2-1.4c-0.2-0.2-0.6-0.2-1.2-0.2c-0.1,0-0.2,0-0.4,0
		c-9.7,0.4-19.1,2.5-28.8,6.1c-1.2,0.5-2.5,0.9-2.6,1.2c-0.1,0.3,0.5,1.4,1.1,2.6l0.2,0.3c0.7,1.3,1.9,3.5-0.6,4.9
		c-0.5,0.3-1,0.4-1.5,0.4c-1.5,0-2.2-1.3-2.8-2.3c-0.1-0.2-0.2-0.3-0.3-0.5l-0.1-0.2c-0.1-0.2-0.3-0.5-0.4-0.8
		c-0.5-1.6-1.1-1.6-1.4-1.6c-0.5,0-1.1,0.2-2,0.7c-8,4.4-15.1,9.8-21.8,16.3c0.3,0.3,0.7,0.5,1,0.8c1.4,1.1,2.6,2.1,3.9,3.2
		c0.7,0.6,1.2,1.3,1.2,2.1c0.1,0.7-0.2,1.5-0.8,2.1c-0.7,0.8-1.5,1-2,1c-0.7,0-1.3-0.3-2-0.8c-0.3-0.3-0.7-0.5-1-0.7
		c-0.9-0.6-1.8-1.3-2.6-2.1c-0.7-0.7-1.2-1.1-1.7-1.1c-0.5,0-1.2,0.5-2.1,1.7c-5.6,7.1-10,14.2-13.4,21.7c-0.3,0.8-0.7,1.6-0.5,2
		c0.1,0.3,0.5,0.5,1.2,0.7c1,0.3,1.7,0.9,2,1.7c0.2,0.5,0.4,1.4-0.2,2.5c-0.5,1-1.3,1.5-2.4,1.5c-0.6,0-1.2-0.2-1.8-0.6
		c-0.6-0.4-0.9-0.4-1-0.4c-0.2,0-0.4,0.7-0.6,1.3l-0.1,0.3c-2.7,8.3-3.8,16.8-4.4,23.3c-0.1,1.2,0,1.9,0.3,2.3
		c0.1,0.1,0.3,0.3,1.2,0.3c0.3,0,0.6,0,0.9-0.1c0.3,0,0.6-0.1,1-0.1c0.3,0,0.6-0.2,0.9-0.2c0.3,0,0.6-0.2,0.8-0.2h0.1
		c2.8,0,3.2,2.1,3.2,2.9c0,0.9-0.2,1.7-0.7,2.2c-0.6,0.6-1.4,1-2.6,1l-0.7,0.1c-0.6,0-1.1,0.1-1.7,0.1c-0.6,0-1.1,0-1.6-0.1
		c-0.1,0-0.2,0-0.4,0c-0.2,0-0.6,0-0.7,0.2c-0.1,0.1-0.2,0.4-0.2,1.2c0.6,8.5,1.4,19.1,5.8,28c1.2,3.3,1.5,5.3,0.7,6.4
		C40.9,211.8,40,211.8,39.7,211.9L39.7,211.9z M221.5,202.5c-0.2,0.8-0.5,1.5-0.8,2.3c-0.1,0.3-0.2,0.6-0.2,0.9c0,0,0,0.1,0,0.1
		l-0.7,0.5l0.7-0.4c0,0,0,0,0,0l0,0c0,0,0,0,0,0c0,0,0.2,0.1,0.8,0.1l0.3,0c0.9,0,1.8,0,2.7,0c0.7,0,2.3,0,2.3,0l0.1,0.1
		c0,0,4.8,0,5.6,0l1.1,0c2.9,0,5.4-0.8,7.6-2.4l0.1-0.1c3.5-1.9,5.8-5,6.7-9.2c0.9-4.2,1.5-8.3,1.7-12.2c1.5-21.3-2-41.4-10.1-59.6
		c-5.5-12.2-13.1-23.6-22.5-33.9c-0.5-0.6-0.8-0.7-0.9-0.7c-0.1,0-0.3,0.1-0.8,0.6c-1.3,1.5-2.7,2.9-4.1,4.2
		c-0.6,0.6-1.1,1.2-1.7,1.7c-0.9,0.8-1.7,1.7-2.5,2.5c-1.9,1.9-4,3.9-6.1,5.7c-0.8,0.7-1.2,1.2-1.2,1.7c0,0.5,0.3,1.1,1.1,2
		c15.8,17.4,24.4,38.6,25.4,62.9C226.7,180.1,225.1,191.3,221.5,202.5L221.5,202.5z M39.1,88.2c-0.3,0-0.8,0.5-1.2,0.9
		c-12.5,13.5-21.5,29-26.9,46.1c-5.5,17.2-7,35.1-4.7,53.4c0.9,6.8,2.6,11.9,8,15.3c3.1,1.9,6.5,2.1,9.7,2.1c0.8,0,1.6,0,2.4,0
		l0.7,0c0.7,0,3.3,0,3.9,0c0.9,0,1.7,0,2.6,0l0.3,0c0.6,0,0.8-0.1,0.8-0.1c0,0,0-0.2-0.2-1c-4.9-14.1-6.6-28.5-5-42.8
		c1-9.5,3.3-18.5,6.7-27c4.5-11.1,10.7-20.8,18.3-28.8c0.7-0.7,1-1.3,1-1.8c0-0.5-0.4-1-1.1-1.7C49.8,98.5,45.2,94,40.3,89
		C39.6,88.3,39.3,88.2,39.1,88.2z M126.4,73.7c9.8,0,20.1,1.5,30.5,4.6c13.5,3.9,25.9,11,36.9,21.1c0.5,0.5,0.9,0.7,1.2,0.7
		c0.2,0,0.6-0.2,1.1-0.7c2.2-2.3,4.5-4.6,6.7-6.8c0.9-0.9,1.8-1.8,2.7-2.7c0.6-0.6,1.1-1.1,1.7-1.6c1.3-1.3,2.7-2.6,4.1-3.9
		c0.5-0.4,0.5-0.6,0.5-0.7c0-0.1,0-0.3-0.6-0.7c-1.1-0.9-2.3-1.9-3.4-2.9c-1.8-1.5-3.6-3.1-5.4-4.5C179.8,58.6,155,50,128.8,50
		c-11.1,0-22.6,1.5-34.3,4.6c-10,2.6-18.5,6.1-25.8,10.8l0-0.1l-0.2-0.3l0.1,0.4l-1.2,0.6c-9.2,4.7-17.1,11.3-23.5,17.1
		c-0.5,0.4-0.5,0.6-0.5,0.6c0,0.1,0.4,0.5,0.6,0.7c0.1,0.1,0.2,0.2,0.3,0.3c1.3,1.2,2.5,2.5,3.8,3.7c3.4,3.3,7,6.8,10.3,10.3
		c1,1,1.5,1.1,1.8,1.1c0.6,0,1.2-0.5,2.1-1.2C81.8,82.1,103.4,73.7,126.4,73.7z"/>
	<path class="st3" d="M171.1,166c5.7-4,11.8-4.5,18.2-4.7c1.8,0,1.7,0.6,1.1,1.9c-1.3,2.7-2.6,5.3-4.3,7.7c-1.1,1.3-1.8,2.8-3.3,3.8
		c-13.8,9-27.6,18-41.3,27c-1.4,0.9-2,0.5-2.7-0.9c-1.3-2.6-3.7-5.8-6-7.6c-2.3-1.8-1.6-2.6,0.4-3.9
		C145.7,181.5,159,174.5,171.1,166z"/>
	<path class="st4" d="M140.9,206.5c-0.2-1.3-0.6-2.6-1.2-3.9l0.3-1c0.1-0.1,0.2-0.1,0.3-0.2c14.7-9.7,29.1-19.1,41.3-27
		c0.9-0.6,1.4-1.4,2.1-2.2c0.3-0.4,0.6-0.9,1-1.4c1.8-2.6,3.1-5.3,4.2-7.6c0.2-0.4,0.3-0.6,0.3-0.8c-0.1,0-0.3,0-0.5,0l-0.1,0
		c-6.1,0.1-12.1,0.6-17.8,4.5c-9.3,6.5-19,12.7-28.4,18.7c-2.9,1.9-5.9,3.8-8.8,5.6c-0.8,0.5-3.3,2.2-3.6,2.5l-1.2,0
		c-1.2-1.4-2-2.6-2.4-3.7l0.3-1c3.8-2.5,7.8-5,11.8-7.7c10.5-6.8,21.4-13.9,31-20.3c4.1-2.7,8.7-4.1,14.1-4.2c2.4,0,4.7-0.1,7-0.1
		c0.8,0,1.7,0,2.5,0c1.8,0,2.6,0.7,2.9,1.3c0.4,0.6,0.6,1.6-0.1,3.2c-4,9.1-7.8,16.4-16.2,21.4c-8.3,4.9-16.6,10.4-24.5,15.7
		c-4,2.7-8.1,5.4-12.2,8.1c-0.4,0.3-0.7,0.5-1,0.7L140.9,206.5z"/>
	<path class="st4" d="M153.6,211.9l-51.3,0l-0.2,0c-0.1,0-1-0.2-1.7-1.3c-0.8-1.3-0.8-3.3,0-6c1.8-6.1,4.1-10.2,7.6-13.3
		c3.3-3,7.2-5.2,7.3-5.3c2.6-1.3,8.3-2.5,8.5-2.5c1.3-0.1,2.6-0.1,3.7-0.1c3.2,0,5,0.3,5.8,0.5c10.7,2.6,17.8,9.4,21.5,20.8
		c1,3.2,1.1,5.3,0.3,6.4C154.6,211.8,153.9,211.9,153.6,211.9L153.6,211.9z M128.1,189c-10,0-18.5,5.8-21.6,14.9
		c-0.4,1.3-0.4,1.7-0.3,1.8c0,0,0.3,0.3,1.4,0.3l0.3,0c2.4-0.1,5.1-0.1,8.3-0.1c1.9,0,3.7,0,5.6,0c1.9,0,3.7,0,5.6,0
		c1.9,0,3.8,0,5.6,0c1.9,0,3.8,0,5.6,0c3.5,0,6.3,0,8.9,0.1l0.2,0c1.1,0,1.3-0.2,1.3-0.2c0,0,0.2-0.2-0.2-1.4
		c-2.9-9-11.3-15.3-20.6-15.3H128.1z"/>
	<path class="st3" d="M150.1,204.1c-3-9.2-11.7-15.8-21.3-15.9c-10.5-0.1-19.4,6-22.6,15.4c-0.8,2.3-0.5,3.1,2.1,3.1
		c6.5-0.2,13-0.1,19.5-0.1c6.7,0,13.4-0.1,20.1,0C150.2,206.7,150.8,206.4,150.1,204.1z"/>
</g>
</svg>
