<?xml version="1.0" encoding="utf-8"?>
<!-- Generator: Adobe Illustrator 19.1.0, SVG Export Plug-In . SVG Version: 6.00 Build 0)  -->
<svg version="1.1" id="Layer_1" xmlns="http://www.w3.org/2000/svg" xmlns:xlink="http://www.w3.org/1999/xlink" x="0px" y="0px"
	 viewBox="0 0 256 256" style="enable-background:new 0 0 256 256;" xml:space="preserve">
<style type="text/css">
	.st0{fill:#2FAFBE;}
	.st1{fill:#64D8D5;}
	.st2{fill:#95D1CF;}
	.st3{fill:#6FC1CA;}
	.st4{fill:#7ECACE;}
	.st5{fill:#ABDDDD;}
	.st6{fill:#05E2D1;}
	.st7{fill:#64F2E8;}
	.st8{fill:#EDAAA8;}
	.st9{fill:#F0ADAB;}
	.st10{fill:#E9D2B6;}
</style>
<g>
	<path class="st0" d="M229,0c1.8,0,3.7,0,5.5,0c0.5,2.1,0,4.2,0.2,6.2c0.2,1.8-0.3,2.4-2.2,2.5c-8.3,0.6-15.1,4.1-20.6,10.5
		c0.5,0.3,0.8,0.5,1.2,0.7c12.4,6.1,19,18.2,16.8,31.8c-0.4,2.5,0.2,4,1.7,5.7c8.5,9.6,14.7,20.5,18.9,32.6c3,8.6,5.4,17.4,5.4,26.5
		c0.2,36.3,0.1,72.6,0.1,109c0,2.5-0.2,5-0.8,7.4C251.6,247,240,256,225,256c-72.7,0-145.4,0-218.2,0c-2.7,0-5.1-0.4-6.9-2.5
		c0-46.7,0-93.3,0-140c1.1-0.7,1.8-1.8,3-2.5C52.1,81.5,101.3,52,150.4,22.5c1.3-0.8,2.7-1.1,4.2-1.1c7.9,0.1,15.8,1,23.4,3.1
		c1.6,0.4,2.7,0.2,4-0.9c5.3-4.4,11.6-6.4,18.4-6.4c1.6,0,2.5-0.5,3.5-1.8c4.2-5.8,9.8-9.9,16.4-12.6C223.2,1.6,226.1,0.9,229,0z
		 M8.6,231c0,5.3,0,10.7,0,16c-0.1,0.3,0,0.5,0.4,0.4c9.7,0,19.3,0,29,0c0.3,0,0.7,0.1,1,0.1c62.2,0,124.3,0,186.5,0
		c3.4,0,6.8-0.6,9.9-2.2c8.3-4.3,12.1-11.3,12.1-20.5c0-33.1,0-66.1,0-99.2c0-2,0.9-4.6-0.4-5.7c-1.1-1-3.6-0.3-5.5-0.3
		c-19,0-38,0-57,0.1c-1,0-2-0.1-3-0.1c-45.1,0-90.1,0-135.2,0c-11.9,0-23.8,0-35.7,0c-1.6,0-2.1,0.4-2.1,2.1c0.1,4.1,0.2,8.2,0,12.2
		c-0.1,2.3,0.6,2.8,2.8,2.8c50.9-0.1,101.8-0.1,152.7-0.1c0.8,0,1.7-0.1,2.5-0.1c15.2,0,30.3,0.1,45.5,0.1
		c11.2,0,18.4,7.2,18.4,18.5c0,19,0,38,0,57c0,1.9-0.2,3.8-0.7,5.7c-2.3,8.2-8.8,12.8-18,12.8c-51,0-102,0-153,0
		c-0.9,0-1.8,0.1-2.7,0.1c-15.7,0-31.3,0-47,0C8.6,230.4,8.5,230.6,8.6,231z M212.5,29.6c-4.6-3.7-5.7-3.3-7,2.4
		c-0.1,0.2,0,0.5-0.1,0.7c-0.8,1.8,0.5,4.6-1.2,5.5c-1.6,0.9-4.1,0.2-6.1,0.3c-0.1,0-0.2,0-0.2,0c-1.2,0.1-1.5-0.4-1.5-1.6
		c0.1-3.1,0.5-6.1,1.5-9.1c0.5-1.4,0.3-2-1.4-1.7C181.7,28.5,174.2,47,183.1,59c4.3,6.9,13,10.5,21.7,8.9c8.5-1.6,15-8.4,16.7-17.4
		C223,42.6,219.2,33.9,212.5,29.6z M9,187.9c-0.6-0.2-0.5,0.2-0.4,0.6c0,10.4,0,20.8-0.1,31.2c0,2,0.6,2.3,2.4,2.3
		c13.2-0.1,26.4,0,39.7,0c5.7,0,11.3-0.1,17-0.1c0.4,0,0.8,0.1,1.2,0.1c47.9,0,95.8,0,143.7,0c6,0,9.4-3.5,9.5-9.5
		c0-7.2-0.1-14.5,0.1-21.7c0.1-2.5-0.7-3-3-3c-37,0.1-74,0.1-110.9,0.1c-0.8,0-1.6,0.1-2.5,0.2c-0.7,0-1.3-0.1-2-0.1
		c-30.8,0-61.7,0-92.5,0C10.3,187.7,9.7,187.8,9,187.9z M155,145.1c-0.6,0-1.2-0.1-1.7-0.1c-47.5,0-95,0-142.5,0
		c-0.6,0-1.2,0.1-1.7,0.1c-0.3-0.1-0.4,0-0.4,0.4c0,11,0,22,0,33c-0.1,0.3,0,0.6,0.4,0.5c0.7,0,1.3,0.1,2,0.1c34.8,0,69.7,0,104.5,0
		c0.7,0,1.3-0.1,2-0.1c0.9,0,1.8,0.1,2.7,0.1c21,0,42,0,62.9,0c12.2,0,24.3,0,36.5,0c1.1,0,2.3,0.4,2.3-1.6
		c-0.1-7.9,0.1-15.8-0.1-23.7c-0.1-5.4-3.7-8.7-9.2-8.8c-2.8,0-5.7,0-8.5,0C187.8,145,171.4,145.1,155,145.1z M246.8,110.8
		c-2.6-17.3-9.2-32.6-20.2-46.1c-1-1.2-1.3-1.2-2.3,0c-7.1,9.2-16.5,13.1-28,11.8c-15.3-1.7-27.3-16.8-25.6-32.2
		c0.5-4.3,1.8-8.2,3.7-12.1c-6.1-1.3-12-2.1-18-2.3c-1.2,0-2.2,0.2-3.3,0.9C109.4,57.1,65.7,83.3,22,109.5c-0.5,0.3-1.4,0.5-1.5,1.3
		C96,110.8,171.4,110.8,246.8,110.8z"/>
	<path class="st1" d="M246.8,110.8c-75.5,0-150.9,0-226.3,0c0.1-0.8,0.9-1,1.5-1.3c43.7-26.2,87.4-52.5,131.1-78.7
		c1.1-0.6,2.1-0.9,3.3-0.9c6,0.1,11.9,0.9,18,2.3c-1.9,3.9-3.2,7.8-3.7,12.1c-1.7,15.4,10.3,30.5,25.6,32.2
		c11.5,1.3,20.9-2.6,28-11.8c0.9-1.2,1.3-1.2,2.3,0C237.6,78.2,244.3,93.5,246.8,110.8z M105.4,84c0.4-0.4,0.8-0.7,1.1-1
		c3.5-3.5,7-7.1,10.6-10.5c1.1-1.1,0.9-1.7-0.1-2.5c-1.1-1-2.2-2-3.2-3.2c-1.1-1.4-2-1.6-3.3-0.1c-2.1,2.4-4.5,4.5-6.6,6.7
		c-1.5,1.5-4.2,2.9-4.1,4.7c0.2,1.7,2.7,3.1,4.2,4.7C104.4,83.2,104.9,83.6,105.4,84z M168.9,101c1.1-0.1,1.4-0.6,1.8-1
		c2.3-2.3,4.6-4.6,6.9-6.9c1.5-1.5,4.2-2.9,4.2-4.7c-0.1-1.9-2.9-3.2-4.3-4.9c-0.9-1.1-1.6-1-2.5,0c-2.7,2.8-5.5,5.6-8.3,8.3
		c-3.3,3.3-3.3,3.3,0,6.6C167.4,99.3,168.2,100.2,168.9,101z M229,88.3c-0.4-0.4-0.6-0.7-0.9-1c-1.3-1.3-2.7-2.5-3.9-3.9
		c-0.9-1-1.5-1-2.4,0c-2.2,2.4-4.6,4.6-6.9,6.9c-1.5,1.6-4.4,3-4.2,4.9c0.2,1.8,2.8,3.3,4.4,4.9c0.1,0.1,0.1,0.1,0.2,0.2
		c0.7,0.9,1.2,0.8,2,0c3.6-3.7,7.3-7.3,10.9-11C228.6,89,228.8,88.6,229,88.3z M165.1,52.5c-0.5-0.5-0.8-0.9-1.2-1.3
		c-2.3-2.3-4.6-4.6-6.9-6.9c-5-5-4.9-5-9.7,0.3c-0.8,0.9-0.8,1.4,0,2.2c2.5,2.4,4.9,4.9,7.4,7.4c1.5,1.4,2.7,4,4.5,3.9
		c1.5-0.1,2.9-2.5,4.3-3.9C164,53.6,164.5,53.1,165.1,52.5z M75.5,101.1c0.5-0.5,0.9-0.9,1.3-1.3c2.3-2.3,4.6-4.5,6.9-6.9
		c1.5-1.5,4.3-3,4.1-4.7c-0.2-1.8-2.8-3.2-4.3-4.9c-1-1.1-1.6-0.9-2.5,0.1c-2.3,2.5-4.8,4.8-7.2,7.2c-1.4,1.4-3.8,2.8-3.8,4.3
		c-0.1,1.7,2.5,2.9,3.9,4.5C74.4,100.1,74.9,100.5,75.5,101.1z M143.5,84.2c0.7-0.6,1.1-1,1.5-1.4c2.3-2.3,4.6-4.6,6.9-6.9
		c1.5-1.5,4.4-3.4,4.1-4.6c-0.4-1.9-2.9-3.4-4.5-5.1c-0.8-0.9-1.4-0.8-2.2,0c-2.5,2.6-5.2,5.2-7.8,7.8c-4,4-4,4,0,8
		C142.4,82.7,142.9,83.4,143.5,84.2z M135.2,95.1c-0.5-0.5-0.8-0.9-1.2-1.3c-2.2-2.2-4.4-4.5-6.7-6.7c-1.6-1.5-3-4.4-4.9-4.2
		c-1.8,0.2-3.2,2.9-4.9,4.4c-1,0.9-0.9,1.5,0,2.3c2.5,2.4,4.8,4.8,7.3,7.2c1.5,1.4,2.8,4.1,4.5,3.9c1.6-0.2,3-2.6,4.5-4
		C134.3,96.2,134.7,95.7,135.2,95.1z"/>
	<path class="st2" d="M56,230.5c0.9,0,1.8-0.1,2.7-0.1c51,0,102,0,153,0c9.2,0,15.8-4.6,18-12.8c0.5-1.8,0.7-3.8,0.7-5.7
		c0-19,0-38,0-57c0-11.2-7.2-18.4-18.4-18.5c-15.2,0-30.3-0.1-45.5-0.1c0.1-0.3,0.1-0.7,0.3-0.9c4-3.4,8.1-6.7,12-10.3
		c1.9-1.8,4.7-2.9,5.7-5.7c19,0,38-0.1,57-0.1c1.9,0,4.4-0.6,5.5,0.3c1.3,1.1,0.4,3.7,0.4,5.7c0,33.1,0,66.1,0,99.2
		c0,9.2-3.8,16.2-12.1,20.5c-3.1,1.6-6.5,2.2-9.9,2.2c-62.2,0-124.3,0-186.5,0c-0.3,0-0.7-0.1-1-0.1c0.1-0.2,0.1-0.6,0.2-0.7
		c3.9-3.4,7.9-6.7,11.7-10.2C52,234.5,54.7,233.2,56,230.5z"/>
	<path class="st3" d="M105.5,187.9c0.8-0.1,1.6-0.2,2.5-0.2c37,0,74,0,110.9-0.1c2.4,0,3.1,0.5,3,3c-0.2,7.2,0,14.5-0.1,21.7
		c0,6-3.5,9.5-9.5,9.5c-47.9,0-95.8,0-143.7,0c-0.4,0-0.8-0.1-1.2-0.1c0.2-0.3,0.3-0.8,0.6-1c5.9-5.1,11.8-10.2,17.7-15.3
		c4.2-3.6,8.6-7,12.6-10.8C100.8,192.4,103.8,190.8,105.5,187.9z"/>
	<path class="st4" d="M8.6,178.5c0-11,0-22,0-33c0.1-0.1,0.2-0.2,0.4-0.4c0.6,0,1.2-0.1,1.7-0.1c47.5,0,95,0,142.5,0
		c0.6,0,1.2,0.1,1.7,0.1c-0.1,1-0.9,1.5-1.6,2.1c-4.3,3.7-8.7,7.4-13,11.1c-5.8,4.9-11.6,9.8-17.2,14.9c-2,1.8-4.7,2.9-5.7,5.7
		c-0.7,0-1.3,0.1-2,0.1c-34.8,0-69.7,0-104.5,0c-0.7,0-1.3-0.1-2-0.1C8.9,178.8,8.7,178.6,8.6,178.5z"/>
	<path class="st3" d="M117.5,179c0.9-2.8,3.7-3.9,5.7-5.7c5.6-5.1,11.5-10,17.2-14.9c4.3-3.7,8.7-7.4,13-11.1
		c0.7-0.6,1.5-1.1,1.6-2.1c16.4,0,32.8-0.1,49.2-0.1c2.8,0,5.7,0,8.5,0c5.5,0.1,9.1,3.4,9.2,8.8c0.2,7.9,0,15.8,0.1,23.7
		c0,2-1.2,1.6-2.3,1.6c-12.2,0-24.3,0-36.5,0c-21,0-42,0-62.9,0C119.3,179.1,118.4,179,117.5,179z"/>
	<path class="st5" d="M184.5,119.5c-1,2.8-3.7,3.8-5.7,5.7c-3.8,3.6-8,6.9-12,10.3c-0.2,0.2-0.2,0.6-0.3,0.9c-0.8,0-1.7,0.1-2.5,0.1
		c-50.9,0-101.8,0-152.7,0.1c-2.3,0-2.9-0.5-2.8-2.8c0.2-4.1,0.1-8.2,0-12.2c0-1.7,0.4-2.1,2.1-2.1c11.9,0.1,23.8,0,35.7,0
		c45.1,0,90.1,0,135.2,0C182.5,119.5,183.5,119.5,184.5,119.5z"/>
	<path class="st4" d="M105.5,187.9c-1.7,2.9-4.7,4.6-7.1,6.8c-4.1,3.8-8.4,7.2-12.6,10.8c-5.9,5.1-11.8,10.2-17.7,15.3
		c-0.3,0.2-0.4,0.7-0.6,1c-5.7,0-11.3,0.1-17,0.1c-13.2,0-26.4,0-39.7,0c-1.8,0-2.4-0.3-2.4-2.3c0.1-10.4,0.1-20.8,0.1-31.2
		c0.1-0.2,0.3-0.4,0.4-0.6c0.7-0.1,1.3-0.1,2-0.1c30.8,0,61.7,0,92.5,0C104.2,187.7,104.8,187.8,105.5,187.9z"/>
	<path class="st6" d="M212.5,29.6c6.8,4.3,10.5,13,9,20.9c-1.7,9-8.3,15.8-16.7,17.4c-8.6,1.6-17.3-2-21.7-8.9
		c0.8-0.1,1.7-0.1,2.4-0.3c7.7-1.9,14.3-5.8,19.3-11.9C208.9,41.8,212,36.3,212.5,29.6z"/>
	<path class="st5" d="M56,230.5c-1.3,2.7-4,4-6.1,5.9c-3.8,3.5-7.8,6.8-11.7,10.2c-0.2,0.1-0.1,0.5-0.2,0.7c-9.7,0-19.3,0-29,0
		c-0.1-0.1-0.3-0.3-0.4-0.4c0-5.3,0-10.7,0-16c0.1-0.1,0.3-0.3,0.4-0.4C24.7,230.5,40.3,230.5,56,230.5z"/>
	<path class="st7" d="M212.5,29.6c-0.5,6.6-3.6,12.2-7.7,17.2c-5,6.1-11.6,10.1-19.3,11.9c-0.8,0.2-1.6,0.2-2.4,0.3
		c-8.8-12-1.3-30.5,13.3-32.9c1.7-0.3,1.8,0.2,1.4,1.7c-1,2.9-1.4,6-1.5,9.1c0,1.2,0.3,1.8,1.5,1.6c0.1,0,0.2,0,0.2,0
		c2.1,0,4.5,0.6,6.1-0.3c1.7-0.9,0.4-3.7,1.2-5.5c0.1-0.2,0.1-0.5,0.1-0.7C206.7,26.3,207.8,25.9,212.5,29.6z"/>
	<path class="st8" d="M9,187.9c-0.1,0.2-0.3,0.4-0.4,0.6C8.5,188.1,8.4,187.7,9,187.9z"/>
	<path class="st9" d="M9,145.1c-0.1,0.1-0.2,0.2-0.4,0.4C8.5,145.1,8.7,145,9,145.1z"/>
	<path class="st9" d="M8.6,178.5c0.1,0.2,0.3,0.3,0.4,0.5C8.6,179,8.5,178.8,8.6,178.5z"/>
	<path class="st10" d="M9,230.5c-0.1,0.1-0.3,0.3-0.4,0.4C8.5,230.6,8.6,230.4,9,230.5z"/>
	<path class="st10" d="M8.6,247c0.1,0.1,0.3,0.3,0.4,0.4C8.7,247.4,8.5,247.3,8.6,247z"/>
	<path class="st0" d="M105.4,84c-0.5-0.5-0.9-0.9-1.3-1.3c-1.5-1.5-4-3-4.2-4.7c-0.2-1.8,2.6-3.1,4.1-4.7c2.2-2.3,4.6-4.4,6.6-6.7
		c1.3-1.5,2.1-1.3,3.3,0.1c0.9,1.1,2,2.2,3.2,3.2c1,0.9,1.2,1.5,0.1,2.5c-3.6,3.4-7.1,7-10.6,10.5C106.2,83.4,105.8,83.7,105.4,84z"
		/>
	<path class="st0" d="M168.9,101c-0.7-0.7-1.4-1.7-2.3-2.6c-3.3-3.3-3.3-3.3,0-6.6c2.8-2.8,5.6-5.5,8.3-8.3c1-1,1.6-1.2,2.5,0
		c1.4,1.7,4.2,3,4.3,4.9c0.1,1.8-2.7,3.1-4.2,4.7c-2.3,2.3-4.6,4.6-6.9,6.9C170.3,100.3,170,100.9,168.9,101z"/>
	<path class="st0" d="M229,88.3c-0.3,0.3-0.5,0.7-0.8,1c-3.6,3.7-7.3,7.3-10.9,11c-0.8,0.8-1.3,0.9-2,0c0-0.1-0.1-0.1-0.2-0.2
		c-1.6-1.6-4.2-3.1-4.4-4.9c-0.2-1.8,2.7-3.3,4.2-4.9c2.2-2.3,4.6-4.6,6.9-6.9c0.9-1,1.5-1,2.4,0c1.2,1.4,2.6,2.6,3.9,3.9
		C228.4,87.6,228.7,87.9,229,88.3z"/>
	<path class="st0" d="M165.1,52.5c-0.6,0.6-1.1,1.2-1.6,1.7c-1.4,1.4-2.8,3.8-4.3,3.9c-1.8,0.1-3-2.5-4.5-3.9
		c-2.5-2.4-4.9-4.9-7.4-7.4c-0.8-0.8-0.9-1.3,0-2.2c4.8-5.3,4.8-5.3,9.7-0.3c2.3,2.3,4.6,4.6,6.9,6.9
		C164.3,51.5,164.6,52,165.1,52.5z"/>
	<path class="st0" d="M75.5,101.1c-0.6-0.6-1.2-1-1.7-1.6c-1.4-1.5-4-2.7-3.9-4.5c0.1-1.5,2.4-2.9,3.8-4.3c2.4-2.4,4.8-4.8,7.2-7.2
		c0.9-1,1.6-1.2,2.5-0.1c1.5,1.7,4.1,3.1,4.3,4.9c0.2,1.6-2.6,3.1-4.1,4.7c-2.2,2.3-4.6,4.6-6.9,6.9
		C76.5,100.2,76.1,100.6,75.5,101.1z"/>
	<path class="st0" d="M143.5,84.2c-0.6-0.8-1.2-1.5-1.8-2.2c-4-4-4-4,0-8c2.6-2.6,5.2-5.2,7.8-7.8c0.8-0.8,1.4-1,2.2,0
		c1.5,1.7,4.1,3.2,4.5,5.1c0.2,1.2-2.6,3.1-4.1,4.6c-2.3,2.3-4.6,4.6-6.9,6.9C144.7,83.2,144.2,83.6,143.5,84.2z"/>
	<path class="st0" d="M135.2,95.1c-0.5,0.6-0.9,1.1-1.4,1.5c-1.5,1.4-2.9,3.9-4.5,4c-1.7,0.2-3-2.5-4.5-3.9
		c-2.5-2.4-4.8-4.8-7.3-7.2c-0.9-0.9-1-1.4,0-2.3c1.7-1.5,3.1-4.2,4.9-4.4c1.9-0.2,3.3,2.7,4.9,4.2c2.3,2.2,4.5,4.5,6.7,6.7
		C134.4,94.2,134.7,94.6,135.2,95.1z"/>
</g>
</svg>
