<?xml version="1.0" encoding="utf-8"?>
<!-- Generator: Adobe Illustrator 19.1.0, SVG Export Plug-In . SVG Version: 6.00 Build 0)  -->
<svg version="1.1" id="Layer_1" xmlns="http://www.w3.org/2000/svg" xmlns:xlink="http://www.w3.org/1999/xlink" x="0px" y="0px"
	 viewBox="0 0 256 256" style="enable-background:new 0 0 256 256;" xml:space="preserve">
<style type="text/css">
	.st0{fill:#3F3730;}
	.st1{fill:#E9D2B6;}
	.st2{fill:#EFDAC1;}
	.st3{fill:#673B30;}
	.st4{fill:#FF6547;}
	.st5{fill:#F15B39;}
</style>
<g>
	<path class="st0" d="M83.5,245.9c0.1,0.1,0.2,0.1,0.4,0.2c0.1-0.1,0.2-0.2,0.3-0.3C83.9,245.8,83.7,245.8,83.5,245.9z"/>
	<path class="st1" d="M120.7,4.8c10.6-2.3,20.2,0.4,29.2,5.7c12.5,7.3,22,17.8,30.3,29.5c16.3,23,27.1,48.4,33.8,75.6
		c3.2,12.9,5.3,26,5.3,39.3c0,21.9-4,42.9-16.7,61.3c-12.3,17.7-29.4,28.3-50.2,33.2c-9.2,2.2-18.6,3.1-28.1,2.4
		c0.1-0.7,0.7-0.8,1.3-0.9c15.5-1.6,29.6-6.8,42.2-16.1c12.4-9.1,21.2-21,27-35.2c3.3-8.1,5.5-16.5,6.8-25.1
		c1.4-9.9,1.5-19.9,0.7-30c-0.9-12.2-3.3-24-6.5-35.8c-3-11.1-6.9-22-11.6-32.5c-5.4-12.1-11.6-23.7-19.2-34.5
		c-4.9-7.1-10.3-13.8-16.5-19.8c-7.8-7.4-16.4-13.7-27-16.6C121.1,5.4,120.9,5,120.7,4.8z"/>
	<path class="st2" d="M202.1,144.6c-0.9-12.2-3.3-24-6.5-35.8c-3-11.1-6.9-22-11.6-32.5c-5.4-12.1-11.6-23.7-19.2-34.5
		c-4.9-7.1-10.3-13.8-16.5-19.8c-7.8-7.4-16.4-13.7-27-16.6c-0.3-0.1-0.5-0.4-0.7-0.6c-10.5,2.4-19.2,8-27.1,15.1
		C81.1,31.1,71.8,44.6,63.7,59.2c-0.7,1.2-1.2,2.9-3.2,2.4c-1.2,2.5-2.3,5.1-3.6,7.6c-0.8,1.5-1.1,3.3-2.7,4.3
		c1.9,1,1.3,2.4,0.7,3.8c-4,9.1-7.4,18.5-10.1,28c-4.8,16.7-7.9,33.7-7.9,51.2c-0.1,67.8,47.9,86.2,47.9,86.2
		c12.5,5.7,25.7,8.8,39.5,9c0.1-0.7,0.7-0.8,1.3-0.9c15.5-1.6,29.6-6.8,42.2-16.1c12.4-9.1,21.2-21,27-35.2
		c3.3-8.1,5.5-16.5,6.8-25.1C202.8,164.7,202.8,154.7,202.1,144.6z"/>
	<path class="st3" d="M130.2,256c-2.1,0-4.1-0.1-6.1-0.2c-14.1-0.2-27.8-3.3-40.9-9.3c-1.5-0.6-13.4-5.6-25.4-18.6
		c-11.4-12.5-25-34.9-25-71.2c0-16.3,2.6-33.4,8.1-52.3c2.3-7.8,5.2-15.4,8.1-22.8c0.7-1.9,1.4-3.7,2.2-5.6
		c3.5-9.1,8.6-17.9,9.2-18.8c9.6-17.3,19.3-30.1,30.6-40.2c9.7-8.7,18.8-13.8,28.9-16c10.6-2.3,21.1-0.3,32.1,6.2
		c11.4,6.7,21.4,16.4,31.5,30.6c15.9,22.3,27.2,47.5,34.5,77c3.6,14.6,5.4,27.7,5.4,40.2c0,26.2-5.5,46.4-17.4,63.6
		c-12.3,17.8-30,29.5-52.6,34.8C145.4,255.1,137.7,256,130.2,256z M128.3,8c-2.3,0-4.5,0.3-6.8,0.8c-8.6,1.9-16.7,6.4-25.3,14.2
		c-10.6,9.5-19.9,21.7-29,38.2l-0.1,0.1c-0.1,0.1-5.2,8.8-8.6,17.6v0c-0.7,1.9-1.4,3.7-2.2,5.6c-2.8,7.2-5.7,14.6-7.9,22.1
		c-5.2,18.2-7.8,34.6-7.8,50.1c-0.1,64.3,44.9,82.3,45.3,82.5l0.2,0.1c12.1,5.5,24.9,8.4,37.9,8.6l0.2,0c8.7,0.6,17.8-0.2,26.9-2.3
		c20.6-4.8,36.7-15.4,47.8-31.5c10.9-15.8,16-34.6,16-59c0-11.8-1.7-24.4-5.1-38.3c-7-28.5-17.9-52.7-33.2-74.3
		c-9.4-13.3-18.6-22.3-29-28.4C141,9.9,134.6,8,128.3,8z"/>
</g>
<g>
	<g>
		<path class="st4" d="M212.9,66.9c-17.1,17.2-34.1,34.4-51.2,51.6c-7.4,7.5-7.4,11.9,0,19.4c17.1,17.2,34.1,34.4,51.2,51.6
			c-5.8,9.9-15,16.6-23,24.4c-17.2-17.1-34.4-34.1-51.6-51.2c-8.5-8.5-12.3-8.5-20.9,0.2c-23.1,23.1-46.2,46.1-69.1,69.3
			c-3.3,3.4-5.2,3.6-8.4,0c-5-5.6-10.3-10.9-15.8-15.9c-3.6-3.3-3.2-5.2,0.1-8.5c23.2-22.9,46.2-46,69.3-69.1
			c8.4-8.4,8.4-12.5,0-20.9C70.3,94.6,47.3,71.5,24.1,48.6c-3.3-3.3-3.8-5.2-0.1-8.5c5.6-5,10.9-10.3,15.8-15.9
			c3.2-3.6,5.1-3.4,8.4,0c22.6,22.9,45.4,45.6,68.2,68.3c10,10,13,10,22.9,0.2C156.1,76,173,59.3,189.9,42.5
			c3.5,3.2,7.2,6.3,10.3,9.8C204.5,57.1,210.6,60.4,212.9,66.9z"/>
		<path class="st5" d="M212.9,66.9c-2.4-6.5-8.4-9.8-12.7-14.6c-3.1-3.5-6.9-6.5-10.3-9.8c6.3-6.5,12.7-12.9,18.9-19.4
			c2.2-2.4,3.7-2.4,6,0c5.8,6.1,11.7,12,17.8,17.8c2.4,2.3,3,4,0.3,6.6C226.1,53.8,219.5,60.4,212.9,66.9z"/>
		<path class="st5" d="M189.9,213.8c8.1-7.8,17.3-14.5,23-24.4c6.6,6.5,13.1,13.1,19.9,19.4c2.7,2.6,2.1,4.3-0.3,6.6
			c-6,5.8-12,11.7-17.8,17.8c-2.3,2.4-3.8,2.4-6,0C202.6,226.7,196.2,220.3,189.9,213.8z"/>
	</g>
	<path class="st3" d="M211.8,238C211.8,238,211.8,238,211.8,238c-2.7,0-4.7-1.2-5.9-2.5c-4.4-4.7-9-9.1-13.5-13.7
		c-1.8-1.8-3.6-3.5-5.4-5.3l-15.4-15.3c-12-11.9-24.1-23.9-36.1-35.8c-6.9-6.9-8.2-6.9-15.3,0.2c-4.9,4.9-9.8,9.8-14.8,14.7
		c-17.9,17.8-36.3,36.3-54.3,54.5c-1.9,1.9-4.3,3.8-7.3,3.8c-3.1-0.1-5.3-2.1-6.9-3.9c-4.8-5.4-10-10.6-15.5-15.5
		c-1.6-1.5-3.8-3.8-3.9-6.9c-0.1-3.1,1.9-5.5,3.8-7.4c18.6-18.4,37.5-37.3,55.7-55.5l13.6-13.6c6.9-6.9,6.9-8.4,0-15.3L77,107
		C58.8,88.7,39.9,69.9,21.3,51.4c-2-1.9-3.9-4.3-3.9-7.4c0.1-3.1,2.3-5.4,3.9-6.9c5.4-4.8,10.6-10.1,15.5-15.5
		c1.6-1.8,3.9-3.9,6.9-4c3.1-0.1,5.4,1.9,7.3,3.8c17.2,17.5,34.9,35.1,52,52.1c5.4,5.4,10.8,10.2,16.2,15.6c3.1,3.1,6.6,5.8,8.7,5.8
		c0,0,0,0,0,0c2,0,5.3-2.4,8.5-5.6c12-11.9,24-23.6,36-35.5l14.6-14.4c1.7-1.8,3.5-3.5,5.3-5.4c4.5-4.5,9.1-9.2,13.5-13.9
		c1.2-1.3,3.2-3,5.9-3c2.7,0,4.7,1.7,5.9,3c5.2,5.5,11,11.3,17.6,17.7c1.5,1.5,3.3,3.6,3.3,6.4c0,2.1-1,4.1-3.1,6
		c-4.8,4.5-9.5,9.2-14.1,13.7c-1.9,1.9-3.8,3.8-5.7,5.6l-14.9,15c-12.1,12.2-24.2,24.4-36.3,36.6c-5.9,5.9-5.9,7.9,0,13.8
		c12.6,12.6,25.1,25.3,37.7,37.9l13.5,13.6c1.9,1.8,3.8,3.7,5.6,5.6c4.6,4.6,9.4,9.3,14.1,13.7l0,0c2.1,1.9,3.1,3.9,3.1,6
		c0,2.8-1.7,4.9-3.3,6.4c-6.7,6.4-12.4,11.7-17.6,17.2C216.4,236.8,214.5,238,211.8,238z M127.9,152.3c4.1,0,8.1,2.5,13.2,7.5
		c12,11.9,24.1,23.9,36.1,35.8l15.5,15.4c1.8,1.9,3.6,3.7,5.4,5.5c4.5,4.6,9.1,9.3,13.6,14c0,0,0.1,0.1,0.1,0.1c0,0,0.1-0.1,0.1-0.1
		c5.3-5.6,11.1-11.4,17.9-17.9c0.2-0.2,0.4-0.4,0.6-0.6c-0.1-0.1-0.2-0.2-0.3-0.3l0,0c-4.9-4.6-9.7-9.3-14.3-13.9
		c-1.9-1.9-3.8-3.7-5.7-5.6l-13.6-13.7c-12.6-12.6-25.1-25.3-37.7-37.9c-8.9-9-8.9-16,0-25c12.1-12.2,24.2-24.4,36.3-36.6l14.9-15
		c1.9-1.9,3.8-3.8,5.7-5.6c4.6-4.6,9.4-9.3,14.3-13.9c0.1-0.1,0.2-0.2,0.3-0.3c-0.1-0.2-0.3-0.3-0.6-0.6
		c-6.7-6.5-12.6-12.4-17.9-17.9c0,0-0.1-0.1-0.1-0.1c0,0-0.1,0.1-0.1,0.1c-4.5,4.7-9.1,9.5-13.6,14c-1.8,1.8-3.6,3.6-5.4,5.5
		l-14.6,14.5c-12,11.9-24,23.8-36,35.7c-11.4,11.3-17,11.3-28.5-0.2c-5.4-5.4-10.8-10.8-16.2-16.2C80.3,62.1,62.6,44.5,45.4,27
		c-0.7-0.7-1.2-1.1-1.4-1.3c-0.2,0.2-0.6,0.5-1.2,1.2C37.7,32.6,32.2,38,26.6,43.1c-0.6,0.5-0.9,0.9-1.1,1.1
		c0.2,0.3,0.6,0.8,1.4,1.6c18.7,18.5,37.6,37.3,55.8,55.6l13.5,13.5c9.9,9.9,9.9,16.6,0,26.5L82.6,155
		c-18.2,18.3-37.1,37.1-55.7,55.6c-0.8,0.8-1.2,1.3-1.4,1.5c0.2,0.2,0.5,0.6,1.1,1.2c5.7,5.1,11.2,10.6,16.2,16.2
		c0.6,0.6,0.9,1,1.2,1.1c0.3-0.2,0.7-0.6,1.5-1.3c18-18.3,36.5-36.7,54.4-54.6c4.9-4.9,9.8-9.8,14.8-14.7
		C119.7,154.9,123.8,152.3,127.9,152.3z"/>
</g>
</svg>
