<?xml version="1.0" encoding="utf-8"?>
<!-- Generator: Adobe Illustrator 19.1.0, SVG Export Plug-In . SVG Version: 6.00 Build 0)  -->
<svg version="1.1" id="Layer_1" xmlns="http://www.w3.org/2000/svg" xmlns:xlink="http://www.w3.org/1999/xlink" x="0px" y="0px"
	 viewBox="0 0 256 256" style="enable-background:new 0 0 256 256;" xml:space="preserve">
<style type="text/css">
	.st0{fill:#64F2E8;}
	.st1{fill:#05E2D1;}
	.st2{fill:#2FAFBE;}
</style>
<g>
	<g>
		<path class="st0" d="M223.3,59.7C204.2,79,185,98.3,165.9,117.6c-8.3,8.4-8.3,13.4,0,21.8c19.2,19.3,38.3,38.6,57.5,57.9
			c-6.5,11.1-16.8,18.6-25.9,27.4c-19.3-19.2-38.6-38.3-57.9-57.5c-9.6-9.5-13.8-9.5-23.5,0.2c-25.9,25.9-51.9,51.7-77.6,77.8
			c-3.7,3.8-5.9,4.1-9.5,0c-5.6-6.3-11.5-12.2-17.8-17.8c-4.1-3.7-3.6-5.8,0.1-9.5c26.1-25.7,51.9-51.7,77.8-77.6
			c9.4-9.4,9.4-14.1,0-23.5C63.2,90.9,37.4,64.9,11.3,39.1c-3.7-3.7-4.3-5.9-0.2-9.5c6.3-5.6,12.2-11.6,17.8-17.8
			c3.6-4,5.7-3.9,9.5,0C63.8,37.5,89.4,63,115,88.5c11.2,11.2,14.6,11.2,25.7,0.2c18.9-18.8,37.9-37.6,56.8-56.4
			c3.9,3.6,8.1,7,11.6,11C213.9,48.7,220.7,52.4,223.3,59.7z"/>
		<path class="st1" d="M223.3,59.7c-2.6-7.3-9.5-11-14.3-16.4c-3.5-3.9-7.7-7.3-11.6-11c7.1-7.3,14.3-14.4,21.2-21.8
			c2.5-2.7,4.2-2.7,6.7,0c6.5,6.8,13.2,13.5,19.9,20c2.7,2.6,3.4,4.5,0.3,7.4C238.1,45,230.8,52.4,223.3,59.7z"/>
		<path class="st1" d="M197.5,224.7c9-8.7,19.4-16.2,25.9-27.4c7.4,7.3,14.8,14.7,22.3,21.8c3.1,2.9,2.4,4.8-0.3,7.4
			c-6.8,6.5-13.5,13.2-19.9,20c-2.5,2.7-4.2,2.7-6.7,0C211.7,239.1,204.6,231.9,197.5,224.7z"/>
	</g>
	<path class="st2" d="M222.1,8.5c1.1,0,2.1,0.7,3.4,2c6.5,6.8,13.2,13.5,19.9,20c2.7,2.6,3.4,4.5,0.3,7.4
		c-7.6,7.1-14.9,14.5-22.3,21.8C204.2,79,185,98.3,165.9,117.6c-8.3,8.4-8.3,13.4,0,21.8c19.2,19.3,38.3,38.6,57.5,57.9
		c7.4,7.3,14.8,14.7,22.3,21.8c3.1,2.9,2.4,4.8-0.3,7.4c-6.8,6.5-13.5,13.2-19.9,20c-1.3,1.3-2.3,2-3.4,2c-1.1,0-2.1-0.7-3.4-2
		c-7-7.4-14.1-14.6-21.2-21.8c-19.3-19.2-38.6-38.3-57.9-57.5c-4.8-4.7-8.2-7.1-11.6-7.1c-3.5,0-7,2.4-11.9,7.3
		c-25.9,25.9-51.9,51.7-77.6,77.8c-1.9,1.9-3.4,2.9-4.9,2.9c-1.4,0-2.8-0.9-4.6-2.9c-5.6-6.3-11.5-12.2-17.8-17.8
		c-4.1-3.7-3.6-5.8,0.1-9.5c26.1-25.7,51.9-51.7,77.8-77.6c9.4-9.4,9.4-14.1,0-23.5C63.2,90.9,37.4,64.9,11.3,39.1
		c-3.7-3.7-4.3-5.9-0.2-9.5c6.3-5.6,12.2-11.6,17.8-17.8c1.8-2,3.2-3,4.6-3c1.5,0,2.9,1,4.8,2.9C63.8,37.5,89.4,63,115,88.5
		c5.6,5.6,9.3,8.4,13,8.4c3.6,0,7.2-2.7,12.7-8.2c18.9-18.8,37.9-37.6,56.8-56.4c7.1-7.3,14.3-14.4,21.2-21.8
		C220,9.2,221,8.5,222.1,8.5 M222.1,0.5c-4.9,0-8.1,3.4-9.2,4.5c-4.9,5.2-10.1,10.5-15.1,15.6c-2,2-4,4.1-6,6.1L175,43.3
		c-13.3,13.2-26.7,26.5-40,39.7c-4.7,4.6-6.4,5.6-7.1,5.9c-0.6-0.2-2.5-1.2-7.3-6.1c-6.1-6.1-12.1-12.1-18.2-18.2
		c-19.2-19.1-39-38.9-58.3-58.5c-2.4-2.5-5.8-5.3-10.5-5.3c-5,0-8.4,3.2-10.6,5.6c-5.4,6.1-11.2,11.8-17.2,17.2
		C3.5,25.7,0.4,29,0.3,33.9C0.2,39.4,4,43.2,5.7,44.8c21,20.7,42.1,41.9,62.6,62.4c5.1,5.1,10.1,10.1,15.2,15.2
		c4.5,4.5,4.7,5.9,4.7,6.1c0,0.1-0.3,1.6-4.7,6.1c-5.1,5.1-10.2,10.2-15.3,15.3c-20.4,20.5-41.6,41.6-62.5,62.3
		c-1.6,1.6-5.5,5.4-5.4,10.9c0.1,4.9,3.2,8.2,5.5,10.3c6.1,5.4,11.8,11.2,17.2,17.2c2.1,2.4,5.6,5.6,10.6,5.6
		c4.7,0,8.1-2.8,10.6-5.3c20.2-20.5,40.9-41.2,61-61.2c5.5-5.5,11.1-11.1,16.6-16.6c4.2-4.2,5.8-4.9,6.2-5c0.4,0.1,1.9,0.7,6,4.8
		c13.6,13.5,27.3,27.1,40.9,40.6l17,16.8c2,2,4,4.1,6,6.1c5,5.1,10.2,10.3,15.1,15.5c1.1,1.1,4.3,4.5,9.2,4.5c4.9,0,8.1-3.4,9.2-4.5
		c5.8-6.1,12.3-12.6,19.7-19.7c1.3-1.3,4.8-4.6,4.8-9.7c0-3.3-1.6-6.5-4.6-9.3c-5.3-5-10.7-10.3-15.8-15.4c-2.1-2.1-4.2-4.2-6.4-6.3
		l-16.7-16.8c-13.6-13.7-27.2-27.4-40.8-41.1c-3.9-3.9-3.9-5.3-3.9-5.3c0,0,0-1.4,3.9-5.3c13.6-13.7,27.2-27.4,40.8-41.1L229,65.4
		c2.1-2.1,4.2-4.2,6.4-6.3c5.2-5.1,10.5-10.4,15.8-15.4c3-2.8,4.5-5.9,4.6-9.3c0-5.1-3.5-8.5-4.8-9.7c-7.4-7.2-13.9-13.6-19.7-19.7
		C230.2,3.9,227,0.5,222.1,0.5L222.1,0.5z"/>
</g>
</svg>
