<?xml version="1.0" encoding="utf-8"?>
<!-- Generator: Adobe Illustrator 19.1.0, SVG Export Plug-In . SVG Version: 6.00 Build 0)  -->
<svg version="1.1" id="Layer_1" xmlns="http://www.w3.org/2000/svg" xmlns:xlink="http://www.w3.org/1999/xlink" x="0px" y="0px"
	 viewBox="0 0 256 256" style="enable-background:new 0 0 256 256;" xml:space="preserve">
<style type="text/css">
	.st0{fill:#24A30D;}
	.st1{fill:#2BC016;}
	.st2{fill:#1D7C09;}
	.st3{fill:#8AC24A;}
	.st4{fill:#E2A359;}
	.st5{fill:#FCDD79;}
	.st6{fill:#673B30;}
</style>
<g>
	<path class="st0" d="M184,205.8c-3.1-1.5-3.9-1.4-6.3,1.2c-11.5,11.8-23,23.7-34.6,35.3c-8.8,8.9-22.4,8.5-30.6-0.5
		c1.4-0.3,3-0.5,4.3-1c4.9-1.8,8.5-5.2,12-9c7.2-7.7,14.7-15.2,22.1-22.7c7.3-7.4,14.5-14.9,21.8-22.3c11.7-11.9,23.4-23.7,35-35.6
		c2.6-2.7,5.2-5.4,7.4-8.4c12.3-16.4,16-34.7,11.9-54.7c-2.2-10.6-7.1-20-14.1-28.3c-0.4-0.5-0.5-1.3-0.7-1.9
		c11.1,5.7,19.4,14.3,25.2,25.2c13,24.1,8.8,53.5-10.2,73.2c-11.7,12.1-23.5,24.1-35.3,36.1c-2,2-2.6,3.9-1.3,6.4
		C188.5,201.1,186.3,203.4,184,205.8z"/>
	<path class="st0" d="M123,62.8c-0.3-0.7-0.9-1.4-0.9-2.1c-0.4-9.7,0.7-19.2,4.4-28.3c1-2.4,0.5-4.2-1.5-5.7
		c1.6-2.9,3.2-5.8,4.8-8.7c2.4,1,4.2,0.3,5.8-1.8c1.6-2.2,3.4-4.2,5.1-6.4c1.1-1.4,2-1.8,3.1-0.1c0.5,0.7,1.2,1.4,1.8,2
		c-0.9,1.7-1.6,3.6-2.8,5c-5.8,6.2-10.6,13.1-12.9,21.3c-1.3,4.7-1.6,9.6-2.2,14.4C127.1,56.4,126.2,60.1,123,62.8z"/>
	<path class="st1" d="M212.3,57.9c0.2,0.7,0.3,1.5,0.7,1.9c7,8.3,11.9,17.6,14.1,28.3c4.1,19.9,0.4,38.3-11.9,54.7
		c-2.2,3-4.8,5.7-7.4,8.4c-11.6,11.9-23.4,23.7-35,35.6c-7.3,7.4-14.5,14.9-21.8,22.3c-7.4,7.6-14.9,15-22.1,22.7
		c-3.5,3.8-7.1,7.2-12,9c-1.4,0.5-2.9,0.7-4.3,1c-9.9-10.1-19.9-20.2-29.8-30.3c-18.2-18.6-36.8-37-54.6-56
		c-16.7-17.8-21.5-39.2-13.8-62.3c7.6-23,24-37.4,47.9-41.8c23.4-4.3,43.2,3,59,20.8c2.4,2.7,5,4.7,8.6,3.5c1.8-0.6,3.5-2,4.7-3.4
		c9.9-11.4,22.2-18.7,37.2-21.2c14-2.3,27.4-0.5,39.9,6.5C211.8,57.6,212,57.7,212.3,57.9C212.2,57.9,212.3,57.9,212.3,57.9z
		 M161.6,123.3c2.4,0.3,4.1-0.5,4.8-2.9c1.5-4.8,3-9.5,4.3-14.3c1.8-7-2.4-14.3-9.2-16.4c-7.5-2.3-15,1.7-17.4,9.6
		c-5,16.4-10,32.8-15,49.1c-0.3,0.9-0.6,1.7-1.1,3.3c-0.5-1.6-0.7-2.4-1-3.2c-5-16.3-9.9-32.6-15-48.9c-0.7-2.4-2.1-4.8-3.8-6.6
		c-4.3-4.6-11.4-5.2-16.7-1.9c-5.6,3.4-7.8,9.8-5.7,16.8c9.6,31.6,19.2,63.1,28.8,94.7c2,6.7,7,10.6,13.5,10.6
		c6.4,0,11.4-3.9,13.5-10.6c6.5-21.3,12.9-42.6,19.5-63.9c0.8-2.6,0.4-4.6-2-5.9C159.8,129.6,160.7,126.5,161.6,123.3z"/>
	<path class="st2" d="M123,62.8c3.2-2.7,4.1-6.4,4.6-10.4c0.6-4.8,0.9-9.8,2.2-14.4c2.3-8.2,7.2-15.1,12.9-21.3
		c1.3-1.4,1.9-3.3,2.8-5c0.1,0,0.2,0.1,0.2,0.1c1.7,1.8,4.7,3.4,4.9,5.4c0.2,1.7-2.5,3.9-4,5.8C138.5,33,133.4,44.2,134,57.5
		c0.2,3.1-0.4,5.7-3,7.6c-0.7,0.5-1.3,1.3-1.8,2c-0.9,1.3-1.5,1.1-2.4,0C125.6,65.6,124.2,64.2,123,62.8z"/>
	<path class="st3" d="M212.2,57.9c-0.2-0.1-0.4-0.3-0.6-0.4C211.8,57.6,212,57.7,212.2,57.9z"/>
	<path class="st4" d="M155,97.2c2.4-1.2,4.5-0.7,6.5,0.9c2.1,1.8,2.6,4.2,1.9,6.8c-1.2,4.3-2.5,8.6-3.9,12.8
		c-0.8,2.6-0.2,4.4,2.2,5.6c-0.9,3.1-1.8,6.3-2.7,9.4c-3.4-0.1-4.2,0.6-5.3,4.2c-6.4,21-12.7,41.9-19.1,62.9c-1.2,4-3.3,5.9-6.5,5.8
		c-2.8-0.1-4.7-1.4-5.7-4c1-1.5,2.3-2.9,2.8-4.6c2.5-7.8,4.9-15.7,7.3-23.6c6.6-21.8,13.3-43.5,19.9-65.3
		C153.3,104.7,154.1,100.9,155,97.2z"/>
	<path class="st5" d="M155,97.2c-0.9,3.7-1.7,7.4-2.8,11.1c-6.6,21.8-13.2,43.5-19.9,65.3c-2.4,7.9-4.7,15.7-7.3,23.6
		c-0.5,1.7-1.9,3-2.8,4.6c-4.4-14.3-8.8-28.6-13.1-42.9c-5.3-17.3-10.5-34.7-15.8-52c-0.2-0.7-0.5-1.4-0.6-2.1
		c-0.8-3.5,1-6.8,4.2-7.8c3.3-1,6.7,0.7,7.9,4.3c1.8,5.7,3.5,11.4,5.3,17.2c4.7,15.4,9.4,30.8,14,46.3c0.6,2.2,1.5,4,4.1,4
		c2.5,0,3.3-2,4-4.1c6.3-20.8,12.6-41.5,18.9-62.3C151.6,100,152.5,98,155,97.2z"/>
	<path class="st6" d="M251.3,100.2c-8.8-49.8-66.2-73.9-108.1-45.7c-0.4,0.3-0.9,0.5-1.9,1.1c0.4-3.1,0.5-5.6,1-8.1
		c2-9.6,7.5-17.3,14-24.3c4.1-4.4,4-7.5-0.3-11.8c-3.5-3.6-7-7.2-10.5-10.7c-1-0.7-2.1-1-3.1-1c-1.1,0-2.3,0-3.4,1
		c-3.2,3.7-6.4,7.2-9.5,11c-0.6,0.7-1,1.3-1.2,1.9c-1.9,2.6-5.5,7.9-8.2,14.6c-0.3,0.4-0.5,1-0.7,1.6c-1.5,4.8-2.9,9.7-4,14.6
		c-0.8,3.6-0.9,7.3-1.3,11.1c-0.5-0.3-0.8-0.6-1.2-0.8C91.9,40.9,69.4,38.6,46,48.3c-44.2,18.4-57,77.2-24,111.7
		c28.3,29.6,57.1,58.6,85.7,87.8c11.1,11.3,29.2,11.3,40.4,0c11-11,21.7-22.1,32.6-33.2l0,0l15.6-16c0.3-0.3,0.6-0.5,0.9-0.9
		c12-12.3,24.2-24.4,35.9-36.9C249.2,143.7,255.4,123.2,251.3,100.2z M126.5,32.3c0.1-0.2,0.1-0.3,0.2-0.5
		c1.5-3.4,4.8-10.7,7.7-14.3c0.4-0.3,0.8-0.8,1.2-1.3c0.4-0.4,0.7-0.8,0.9-1.1c1.4-1.8,2.9-3.5,4.2-5.3c1.1-1.4,2-1.8,3.1-0.1
		c0.5,0.7,1.2,1.4,1.8,2c0.1,0,0.2,0.1,0.2,0.1c1.7,1.8,4.7,3.4,4.9,5.4c0.2,1.7-2.5,3.9-4,5.8C138.5,33,133.4,44.2,134,57.5
		c0.2,3.1-0.4,5.7-3,7.6c-0.7,0.5-1.3,1.3-1.8,2c-0.9,1.3-1.5,1.1-2.4,0c-1.2-1.5-2.5-2.9-3.8-4.3c-0.3-0.7-0.9-1.4-0.9-2.1
		C121.7,50.9,122.7,41.4,126.5,32.3z M227.2,156.3c-11.7,12.1-23.5,24.1-35.3,36.1c-0.4,0.4-0.6,0.7-0.9,1.1L178.6,206
		c-0.3,0.3-0.6,0.6-0.9,0.9c-11.5,11.8-23,23.7-34.6,35.3c-8.8,8.9-22.4,8.5-30.6-0.5c-9.9-10.1-19.9-20.2-29.8-30.3
		c-18.2-18.6-36.8-37-54.6-56c-16.7-17.8-21.5-39.2-13.8-62.3c7.6-23,24-37.4,47.9-41.8c23.4-4.3,43.2,3,59,20.8
		c2.4,2.7,5,4.7,8.6,3.5c1.8-0.6,3.5-2,4.7-3.4c9.9-11.4,22.2-18.7,37.2-21.2c14-2.3,27.4-0.5,39.9,6.5c0.2,0.1,0.4,0.3,0.6,0.4l0,0
		c11.1,5.7,19.4,14.3,25.2,25.2C250.5,107.1,246.3,136.6,227.2,156.3z"/>
	<path class="st6" d="M161.5,89.7c-7.5-2.3-15,1.7-17.4,9.6c-5,16.4-10,32.8-15,49.1c-0.3,0.9-0.6,1.7-1.1,3.3
		c-0.5-1.6-0.7-2.4-1-3.2c-5-16.3-9.9-32.6-15-48.9c-0.7-2.4-2.1-4.8-3.8-6.6c-4.3-4.6-11.4-5.2-16.7-1.9c-5.6,3.4-7.8,9.8-5.7,16.8
		c9.6,31.6,19.2,63.1,28.8,94.7c2,6.7,7,10.6,13.5,10.6c6.4,0,11.4-3.9,13.5-10.6c6.5-21.3,12.9-42.6,19.5-63.9
		c0.1-0.4,0.2-0.7,0.3-1.1l5.1-16.8c0.1-0.1,0.1-0.2,0.2-0.4c1.5-4.8,3-9.5,4.3-14.3C172.5,99.1,168.3,91.8,161.5,89.7z
		 M134.4,199.9c-1.2,4-3.3,5.9-6.5,5.8c-2.8-0.1-4.7-1.4-5.7-4c-4.4-14.3-8.8-28.6-13.1-42.9c-5.3-17.3-10.5-34.7-15.8-52
		c-0.2-0.7-0.5-1.4-0.6-2.2c-0.8-3.5,1-6.8,4.2-7.8c3.3-1,6.7,0.7,7.9,4.3c1.8,5.7,3.5,11.4,5.3,17.2c4.7,15.4,9.4,30.8,14,46.3
		c0.6,2.2,1.5,4,4.1,4c2.5,0,3.3-2,4-4.1c6.3-20.8,12.6-41.5,18.9-62.3c0.7-2.2,1.5-4.2,4-5c2.4-1.2,4.5-0.7,6.5,0.9
		c2.1,1.8,2.6,4.2,1.9,6.8c-1.2,4.3-2.5,8.6-3.9,12.8c-0.1,0.4-0.2,0.9-0.3,1.2l-5,16.3c-0.2,0.5-0.4,1-0.6,1.7
		C147.2,158,140.8,178.9,134.4,199.9z"/>
</g>
</svg>
