<?xml version="1.0" encoding="utf-8"?>
<!-- Generator: Adobe Illustrator 19.1.0, SVG Export Plug-In . SVG Version: 6.00 Build 0)  -->
<svg version="1.1" id="Layer_1" xmlns="http://www.w3.org/2000/svg" xmlns:xlink="http://www.w3.org/1999/xlink" x="0px" y="0px"
	 viewBox="0 0 256 256" style="enable-background:new 0 0 256 256;" xml:space="preserve">
<style type="text/css">
	.st0{fill:#64F2E8;}
	.st1{fill:#05E2D1;}
	.st2{fill:#2FAFBE;}
</style>
<path class="st0" d="M128,3.8c-1.2,0-2.4,0-3.6,0.1c-0.3,0-0.6,0-0.9,0c-0.9,0-1.9,0.1-2.8,0.1c-0.3,0-0.5,0-0.8,0.1
	c-1,0.1-2,0.1-3,0.2c-0.2,0-0.3,0-0.5,0c-1.2,0.1-2.3,0.2-3.5,0.4c0,0,0,0,0,0h0C51.7,12.1,4,64.5,4,127.8s47.7,115.7,109,123.1h0
	c0,0,0,0,0,0c1.2,0.1,2.3,0.3,3.5,0.4c0.2,0,0.3,0,0.5,0c1,0.1,2,0.2,3,0.2c0.3,0,0.5,0,0.8,0.1c0.9,0.1,1.9,0.1,2.8,0.1
	c0.3,0,0.6,0,0.9,0c1.2,0,2.4,0.1,3.6,0.1c68.4,0,124-55.6,124-124S196.4,3.8,128,3.8z M76.2,120.5c0.2,0,0.3,0,0.5,0
	c5,0,8.5,1.4,11.8,4.5l2.8,2.7c3.6,3.6,7.4,7.2,10.8,11c0.8,0.8,3.1,3.4,6.7,3.4c3.4,0,5.7-2.3,6.7-3.3c16.8-17,32.3-32.5,47.5-47.5
	c3.3-3.3,7.4-5,11.7-5c4.7,0,9.2,2.2,12.1,6.1c4.8,6.2,4.1,14.9-1.6,20.7c-6.9,7-14,14.1-20.9,21c-3,3-5.9,5.9-8.9,8.9l-9.8,9.8
	c-8.3,8.3-16.6,16.6-24.9,24.8c-3.7,3.7-7.8,5.6-12,5.6c-4.1,0-8.2-1.9-11.8-5.4c-10.3-10.3-20.5-20.5-30.3-30.3
	c-4.5-4.6-5.9-9.7-4.2-15.7c1.6-5.8,5.4-9.4,11.6-10.9C74.8,120.6,75.7,120.6,76.2,120.5z"/>
<path class="st1" d="M128,3.8c-1.2,0-2.4,0-3.6,0.1c-0.3,0-0.6,0-0.9,0c-0.9,0-1.9,0.1-2.8,0.1c-0.3,0-0.5,0-0.8,0.1
	c-1,0.1-2,0.1-3,0.2c-0.2,0-0.3,0-0.5,0c-1.2,0.1-2.3,0.2-3.5,0.4c0,0,0,0,0,0c61.3,7.4,109,59.8,109,123.1s-47.7,115.7-109,123.1
	c0,0,0,0,0,0c1.2,0.1,2.3,0.3,3.5,0.4c0.2,0,0.3,0,0.5,0c1,0.1,2,0.2,3,0.2c0.3,0,0.5,0,0.8,0.1c0.9,0.1,1.9,0.1,2.8,0.1
	c0.3,0,0.6,0,0.9,0c1.2,0,2.4,0.1,3.6,0.1c68.4,0,124-55.6,124-124S196.4,3.8,128,3.8z"/>
<path class="st2" d="M128,7.8c66.3,0,120,53.7,120,120s-53.7,120-120,120S8,194,8,127.8S61.7,7.8,128,7.8 M128-0.3
	c-34.2,0-66.3,13.3-90.5,37.5S0,93.6,0,127.8s13.3,66.3,37.5,90.5s56.3,37.5,90.5,37.5s66.3-13.3,90.5-37.5s37.5-56.3,37.5-90.5
	s-13.3-66.3-37.5-90.5S162.2-0.3,128-0.3L128-0.3z"/>
<path class="st2" d="M73.2,116.9c-7.6,1.9-12.5,6.5-14.5,13.7c-2.1,7.4-0.4,14,5.2,19.6c9.8,9.9,20,20.1,30.3,30.3
	c4.4,4.3,9.4,6.6,14.6,6.6c5.3,0,10.4-2.3,14.8-6.7c8.3-8.3,16.6-16.6,24.9-24.9l9.8-9.8c3-3,5.9-5.9,8.9-8.9
	c6.9-6.9,14-13.9,20.9-21c7.1-7.2,7.9-18.1,1.9-25.9c-3.8-4.9-9.3-7.7-15.3-7.7c-5.3,0-10.5,2.2-14.5,6.2
	c-15.2,15.1-30.7,30.6-47.5,47.5c-0.7,0.7-2.1,2.1-3.9,2.1c-1.6,0-2.8-1.1-3.7-2.1c-3.5-3.8-7.3-7.5-11-11.1l-2.8-2.7
	c-4-3.9-8.5-5.7-14.6-5.7l-0.8,0l0.3,4l-0.3-4C75.2,116.6,74.2,116.6,73.2,116.9z M76.5,124.5l0.3,0c3.9,0,6.4,1,8.8,3.4l2.8,2.7
	c3.6,3.5,7.3,7.2,10.7,10.8c2.8,3.1,6.1,4.6,9.6,4.6c5.1,0,8.3-3.3,9.6-4.5c16.8-16.9,32.3-32.4,47.5-47.5c2.5-2.5,5.7-3.9,8.9-3.9
	c3.5,0,6.7,1.7,9,4.6c3.5,4.6,3,11.1-1.2,15.4c-6.9,7-14,14.1-20.9,21c-3,3-5.9,5.9-8.9,8.9l-9.8,9.8c-8.3,8.3-16.6,16.6-24.9,24.8
	c-2.9,2.9-6.1,4.4-9.2,4.4c-3,0-6.1-1.5-9-4.3c-10.3-10.2-20.5-20.4-30.3-30.3c-3.5-3.5-4.5-7.2-3.2-11.8c1.3-4.4,4-6.9,8.8-8.1
	C75.4,124.6,76.2,124.5,76.5,124.5z"/>
</svg>
