<?xml version="1.0" encoding="utf-8"?>
<!-- Generator: Adobe Illustrator 19.1.0, SVG Export Plug-In . SVG Version: 6.00 Build 0)  -->
<svg version="1.1" id="Layer_1" xmlns="http://www.w3.org/2000/svg" xmlns:xlink="http://www.w3.org/1999/xlink" x="0px" y="0px"
	 viewBox="0 0 256 256" style="enable-background:new 0 0 256 256;" xml:space="preserve">
<style type="text/css">
	.st0{fill:#B7918D;}
	.st1{fill:#8E6561;}
	.st2{fill:#3E3E3E;}
	.st3{fill:#EFDAC1;}
	.st4{fill:#E9D2B6;}
	.st5{fill:#FF5432;}
	.st6{fill:#FF6547;}
	.st7{fill:#673B30;}
</style>
<g>
	<path class="st0" d="M157.4,182.9c16.5-2,32.8-5,48.6-10.2c17.4-5.8,33.5-23.5,41.8-40.1c0.2-0.3,0.3-0.8,0.8-0.8
		c1.4,17.1-4.9,38.2-17.1,52.7c-7.9,9.4-18.9,14.9-29.9,18.5c-3.6,1.2-4.2,2-4.1,5c-2.8,0.7-5.5,1.7-8.4,2c-1.3-2.3-3.1-2.9-5.8-2.3
		c-7.6,1.7-15.2,3.1-22.9,3.9c0.1-6.3,0.2-12.5-1-18.7C158.7,189.5,158.1,186.2,157.4,182.9z"/>
	<path class="st1" d="M157.4,181.9c0.6,3.3,1.3,7.7,1.9,11c1.2,6.2,1.1,12.5,1,18.7c-13.4,1.8-26.9,3.5-40.4,3
		c-22.6-0.8-45-3.8-66.6-10.8c-24.6-8-38.7-26.5-43.4-51.7c-0.8-4.5-1.3-9.1-0.9-14.6c2.4,4.4,4.6,8.1,7.3,11.5
		c9.8,12.7,22.5,21,37.9,25.3c20.6,5.8,41.6,8.2,63,9C130.7,184,144.1,183.3,157.4,181.9z"/>
	<path class="st2" d="M253.2,147.4"/>
	<path class="st3" d="M83.7,63.8c3.8,0.7,7.5,1.5,11.3,2c12.3,1.8,23.9-0.7,35.1-5.7c8.6-3.9,17-8.3,25.7-12.1
		c24.9-10.7,52-6.2,70.5,12.1c16.9,16.8,23.2,37.3,17.7,60.4c-5.7,23.7-21,39.3-44.4,46.4c-14.6,4.5-29.7,7.2-44.9,8.9
		c-0.6,0.1-1.1,0-1.7,0c-0.2-2-1.9-3.1-2.9-4.6c-1.8-2.6-4.7-4.2-6-7.2c6.8-0.8,13.7-1.2,20.5-2.4c15.1-2.5,29.7-6.5,43.1-14.2
		c8-4.5,15.3-9.9,19.7-18.3c11.3-21.5,5.7-48-13.4-63c-10.7-8.4-22.9-12.5-36.6-10.7c-7.4,1-14.4,3.7-21.2,6.6
		c-8.4,3.5-16.2,8.1-24.7,11.3c-10.3,4-20.9,6.8-32,5.6c-9-1-18-2.6-26.9-3.9c2-4.4,5.9-6.9,9.7-9.4C82.8,65.1,83.7,64.9,83.7,63.8z
		"/>
	<path class="st4" d="M144.1,164c1.3,3,4.2,4.6,6,7.2c1,1.5,2.7,2.6,2.9,4.6c-13.7,1.7-27.4,1.7-41.2,0.9
		c-19.1-1.1-37.8-4.4-56.2-9.7C25.4,158.5,6,130,9.3,98.8c0.5-5,1.5-9.9,3.4-14.5c4.9-12,14.1-18.8,26.3-21.7
		c15-3.6,29.9-2.2,44.7,1.2c0,1.1-0.9,1.4-1.6,1.9c-3.8,2.6-7.7,5-9.7,9.4c-4.6-0.6-9.2-1.2-13.9-1.6c-7.3-0.7-14.4,0.1-21,3.4
		c-10.6,5.5-15,14.9-15.6,26.3c-0.8,14.1,5.7,25.2,15.4,34.7c1.6,1.6,3.4,1.3,5.1,0.1c2.5,1,4.3,3.2,6.6,4.5
		c-0.8,3.2-0.4,4.2,2.5,5.8c2.3,1.2,4.6,2.5,7,3.6c18.2,8.4,37.6,11.3,57.3,12.3C125.2,164.6,134.6,164.3,144.1,164z"/>
	<path class="st5" d="M131.8,156.8c-5.5,0.6-11,0.1-16.4-0.1c-15.7-0.7-31.2-2.9-46.1-8.3c-5-1.8-9.8-4-14.4-6.7
		c-2.2-1.3-4.2-1.2-5.9,0.8c-2.3-1.3-4.1-3.5-6.6-4.5c1.7-2.7,1.5-3.8-0.8-6.2c-6.3-6.4-11-13.6-12.2-22.7c-0.8-5.8,0-11.4,2.6-16.7
		c3.4-7,9.3-10.2,16.7-11.3c6.5-1,12.9-0.1,19.3,1c-0.9,4-2,8.1-1.9,12.2c0,5.3,1,10.5,2.5,15.6c2.1,7.3,5.4,14.1,10.8,19.5
		c5.8,5.8,12.9,9.5,20.4,12.6c9.7,4,19.8,7.3,29.1,12.2C130,154.9,131.5,155.2,131.8,156.8z"/>
	<path class="st6" d="M131.8,156.8c-0.4-1.6-1.9-1.9-3-2.6c-9.3-5-19.3-8.2-29.1-12.2c-7.5-3.1-14.7-6.8-20.4-12.6
		c-5.4-5.4-8.7-12.1-10.8-19.5c-1.4-5.1-2.4-10.3-2.5-15.6c0-4.1,1-8.2,1.9-12.2c4,0.5,8,1.1,12.1,1.6c6.4,0.9,12.8,2,19.2,2.7
		c11.7,1.2,22.7-1.5,33.6-5.6c9.7-3.7,18.7-9,28.3-12.9c5.4-2.2,10.8-4.3,16.6-5.1c14.2-1.8,26.1,3,35.9,13.1
		c12.7,13,15.6,32.6,7.6,48.9c-3.5,7.2-9.7,11.6-16.3,15.5c-11.8,7.1-24.8,10.8-38.2,13.3c-10.8,2-21.7,2.9-32.7,3.1
		C133.3,156.9,132.6,156.9,131.8,156.8z M184.2,81.5c-13,0-23.8,10.7-23.8,23.7c0,13,10.8,23.8,23.8,23.8c13,0,23.8-10.8,23.8-23.8
		C207.9,92.3,197.2,81.5,184.2,81.5z"/>
	<path class="st7" d="M184.2,81.5c13,0,23.8,10.7,23.8,23.7c0,13-10.8,23.8-23.8,23.8c-13,0-23.8-10.8-23.8-23.8
		C160.4,92.3,171.1,81.5,184.2,81.5z M184.1,88.9c-9,0-16.4,7.5-16.4,16.4c0.1,8.9,7.4,16.2,16.3,16.3c8.9,0.1,16.5-7.4,16.5-16.3
		C200.6,96.3,193.1,88.9,184.1,88.9z"/>
	<path class="st7" d="M213.5,66.2c-10.7-8.4-22.9-12.5-36.6-10.7c-7.4,1-14.4,3.7-21.2,6.6c-8.4,3.5-16.2,8.1-24.7,11.3
		c-10.3,4-20.9,6.8-32,5.6c-9-1-18-2.6-26.9-3.9c-4.6-0.6-9.2-1.2-13.9-1.6c-7.3-0.7-14.4,0.1-21,3.4c-10.6,5.5-15,14.9-15.6,26.3
		c-0.8,14.1,5.7,25.2,15.4,34.7c5,6.2,14.2,10.4,14.2,10.4c2.3,1.2,4.6,2.5,7,3.6c18.2,8.4,37.6,11.3,57.3,12.3
		c9.5,0.5,19,0.1,28.4-0.1c6.8-0.8,13.7-1.2,20.5-2.4c15.1-2.5,29.7-6.5,43.1-14.2c8-4.5,15.3-9.9,19.7-18.3
		C238.2,107.7,232.6,81.2,213.5,66.2z M220.9,124.9c-3.5,7.2-9.7,11.6-16.3,15.5c-11.8,7.1-24.8,10.8-38.2,13.3
		c-10.8,2-21.7,2.9-32.7,3.1c-0.7,0-1.5-0.1-2.2-0.1c-5.5,0.6-11,0.1-16.4-0.1c-15.7-0.7-31.2-2.9-46.1-8.3c-4.5-1.6-8.8-3.5-13-5.9
		c-0.3-0.3-0.8-0.5-1.4-0.8c-0.5-0.3-0.9-0.5-1.4-0.6c-5.9-2.9-11.9-9.3-11.9-9.3c-6.3-6.4-11-13.6-12.2-22.7
		c-0.8-5.8,0-11.4,2.6-16.7c3.4-7,9.3-10.2,16.7-11.3c6.5-1,12.9-0.1,19.3,1c4,0.5,8,1.1,12.1,1.6c6.4,0.9,12.8,2,19.2,2.7
		c11.7,1.2,22.7-1.5,33.6-5.6c9.7-3.7,18.7-9,28.3-12.9c5.4-2.2,10.8-4.3,16.6-5.1c14.2-1.8,26.1,3,35.9,13.1
		C226,89,228.9,108.6,220.9,124.9z"/>
	<path class="st7" d="M251.8,93.4c-8.3-44.6-54.2-70-96.3-53.4c-9.4,3.7-18.2,8.5-27.3,12.8c-13.3,6.2-26.8,7.9-41.2,4.1
		c-15.1-3.9-30.5-5.1-46-2.4C20.8,57.9,7.6,70.1,2.9,89.5c-6.8,28.5-0.8,63.9-0.8,63.9c5.6,27.9,21.2,47.1,48.1,56.3
		c17.9,6.1,36.6,9,55.5,10.5c26.5,2.1,52.7,0.3,78.6-5.4c8.4-1.1,18.8-4.8,18.8-4.8c25.1-8.6,41.1-25.8,47.8-51.5
		c0.8-2.9,1.6-4.7,1.9-8.7C259.7,117.3,251.8,93.4,251.8,93.4z M201.2,203c-8.7,2.9-18.3,4.7-18.3,4.7c-7.6,1.7-15.2,3.1-22.9,3.9
		c-13.4,1.8-26.9,2.5-40.4,2.1c-22.6-0.8-45-3.8-66.6-10.8c-24.6-8-38.7-25.5-43.4-50.7c-0.8-4.5-1.3-9.1-0.9-14.6
		c2.4,4.4,4.6,8.1,7.3,11.5c9.8,12.7,22.5,21,37.9,25.3c20.6,5.8,41.6,9.1,63,10c13.5,0.5,26.8-0.2,40.2-1.5
		c16.5-2,32.8-5,48.6-10.2c17.4-5.8,30.6-16.7,38.9-33.2c0.2-0.3,0.3-0.8,0.8-0.8C247.6,166.8,229.1,193.8,201.2,203z M243.6,120.5
		c-5.7,23.7-21,39.3-44.4,46.4c-14.6,4.5-29.7,7.2-44.9,8.9c-0.6,0.1-1.1,0-1.7,0c-13.7,1.7-27.4,1.7-41.2,0.9
		c-19.1-1.1-37.8-4.4-56.2-9.7C25,158.5,5.7,130,8.9,98.8c0.5-5,1.5-9.9,3.4-14.5c4.9-12,14.1-18.8,26.3-21.7
		c15-3.6,29.9-2.2,44.7,1.2c3.8,0.7,7.5,1.5,11.3,2c12.3,1.8,23.9-0.7,35.1-5.7c8.6-3.9,17-8.3,25.7-12.1
		c24.9-10.7,52-6.2,70.5,12.1C242.9,76.8,249.2,97.3,243.6,120.5z"/>
</g>
</svg>
