<?xml version="1.0" encoding="utf-8"?>
<!-- Generator: Adobe Illustrator 19.1.0, SVG Export Plug-In . SVG Version: 6.00 Build 0)  -->
<svg version="1.1" id="Layer_1" xmlns="http://www.w3.org/2000/svg" xmlns:xlink="http://www.w3.org/1999/xlink" x="0px" y="0px"
	 viewBox="0 0 256 256" style="enable-background:new 0 0 256 256;" xml:space="preserve">
<style type="text/css">
	.st0{fill:#2FAFBE;}
	.st1{fill:#ABDDDD;}
	.st2{fill:#95D1CF;}
	.st3{fill:#FBFBFB;}
	.st4{fill:#64F2E8;}
	.st5{fill:#05E2D1;}
</style>
<g>
	<path class="st0" d="M163.6,0c6.8,2.3,9.6,7.1,9,14.1c-0.1,1.7,0.1,3.3,0,5c-0.1,1.6,0.4,2.8,1.6,3.9c8.8,8.7,17.4,17.4,26.2,26.1
		c1.6,1.6,2.3,3.2,2.3,5.5c0,65.4,0,130.7,0,196.1c0,2.3-0.6,4-2.5,5.2c-48.8,0-97.6,0-146.5,0c-1.7,0-2-0.3-2-2
		c0.1-67.5,0-135,0-202.5c0.8-0.8,1.6-1.6,2.4-2.4c6.9-6.9,13.5-14.1,20.7-20.5c5.2-4.7,8.3-9.6,6.9-16.7c0-0.2,0-0.5,0-0.7
		c0.2-4.8,2.5-8.1,6.8-10.2C89,0.6,89.8,0.7,90.1,0C114.6,0,139.1,0,163.6,0z M153.6,19.2c3.4,0.1,6.8,0.1,10.2,0.2
		c1.1,0,1.5-0.3,1.4-1.4c-0.1-2.1,0-4.3,0-6.5c-0.1-2.5-1.5-3.9-4.1-4c-2.6,0-5.3,0-7.9,0.1c-11.7,0-23.5-0.1-35.2-0.1
		c-8.2,0-16.3,0-24.5,0c-2.9,0-4.3,1.4-4.3,4.3c0,1.7,0.1,3.5,0,5.2c-0.2,2,0.5,2.3,2.4,2.3c15.8-0.1,31.6,0,47.4,0
		C143.8,19.3,148.7,19.2,153.6,19.2z M139.1,116.6c2.7,0.7,3.5,2.5,3.5,5.2c-0.1,41.1,0,82.3,0,123.4c0,0.6,0.1,1.2,0,1.7
		c-0.2,1.2,0.4,1.5,1.5,1.5c13.2-0.1,26.3-0.1,39.5-0.1c2.9,0,5.8-0.1,8.7,0.1c2.3,0.2,2.8-0.6,2.8-2.8c-0.1-62-0.1-124-0.1-186.1
		c0-0.4,0-0.8,0-1.2c0.1-1.2-0.3-1.6-1.5-1.6c-3.3,0.1-6.6,0.1-10,0.2c-0.7,0-1.3-0.1-2-0.1c-12.2,0-24.5,0-36.7-0.1
		c-2.1,0-2.4,0.7-2.4,2.5c0.1,15,0,29.9,0.1,44.9c0,2.7-0.8,4.5-3.5,5.2c-3.4-0.8-4-1.7-4-5.2c0-15.1,0-30.1,0-45.2
		c0-1.7-0.4-2.2-2.2-2.2c-23.9,0.1-47.8,0.1-71.7,0c-1.7,0-2.2,0.4-2.2,2.2c0.1,9.6,0,19.2,0,28.7c0,19.6,0,39.1,0,58.7
		c0,2,0.5,2.4,2.5,2.2c6.1-0.6,12-1.9,17.5-4.5c6.7-3.1,12.2-7.7,17.9-12.2c7-5.5,14.3-10.2,23-12.7
		C126.2,117.3,132.7,116.9,139.1,116.6z M135.1,186.5c0-20,0-40,0-60c0-1.8-0.4-2.2-2.2-2.1c-5.5,0.5-10.8,1.6-16,3.7
		c-7.7,3.2-14.1,8.5-20.5,13.6c-10.4,8.4-21.9,13.7-35.4,14.2c-1.9,0.1-2,1-2,2.5c0,29.2,0,58.5,0,87.7c0,2,0.6,2.3,2.4,2.2
		c23.8-0.1,47.6-0.1,71.4,0c1.9,0,2.3-0.5,2.3-2.3C135.1,226.3,135.1,206.4,135.1,186.5z M64.5,49.2c1,0.1,1.3,0.1,1.6,0.1
		c23.1,0,46.3,0,69.4,0c1.4,0,2.3-0.6,3.2-1.5c5.8-5.8,11.6-11.7,17.5-17.5c1-1,2.2-1.9,3.3-2.9c-0.1-0.2-0.3-0.4-0.4-0.7
		c-0.9,0-1.8,0-2.7,0c-19.8,0-39.6,0.4-59.4-0.2c-7.4-0.2-12.7,1.7-17.4,7.3C75.2,39.2,69.9,43.8,64.5,49.2z M189.8,49.2
		c-7-7-13.5-13.5-20-20c-1.1-1.1-1.5-0.2-2.1,0.4c-6.1,6.1-12.2,12.2-18.3,18.4c-0.3,0.3-0.9,0.5-0.5,1.3
		C162.2,49.2,175.6,49.2,189.8,49.2z"/>
	<path class="st1" d="M135.1,186.5c0,19.9,0,39.8,0,59.7c0,1.8-0.4,2.3-2.3,2.3c-23.8-0.1-47.6-0.1-71.4,0c-1.8,0-2.4-0.3-2.4-2.2
		c0.1-29.2,0.1-58.5,0-87.7c0-1.5,0.1-2.4,2-2.5c13.5-0.5,25.1-5.9,35.4-14.2c6.4-5.2,12.7-10.5,20.5-13.6c5.1-2.1,10.5-3.2,16-3.7
		c1.8-0.2,2.2,0.3,2.2,2.1C135.1,146.5,135.1,166.5,135.1,186.5z"/>
	<path class="st1" d="M183.6,248.4c-13.2,0-26.3,0-39.5,0.1c-1.2,0-1.7-0.3-1.5-1.5c0.1-0.6,0-1.2,0-1.7c0-41.1,0-82.3,0-123.4
		c0-2.7-0.8-4.5-3.5-5.2c0-2.4,0-4.8,0-7.3c2.7-0.7,3.5-2.5,3.5-5.2c-0.1-15,0-29.9-0.1-44.9c0-1.9,0.3-2.5,2.4-2.5
		c12.2,0.1,24.5,0.1,36.7,0.1c0.7,0,1.3,0.1,2,0.1C183.6,120.7,183.6,184.6,183.6,248.4z"/>
	<path class="st1" d="M139.1,109.4c0,2.4,0,4.8,0,7.3c-6.5,0.3-12.9,0.7-19.2,2.6c-8.6,2.5-16,7.2-23,12.7
		c-5.7,4.5-11.2,9.1-17.9,12.2c-5.6,2.6-11.4,3.9-17.5,4.5c-1.9,0.2-2.5-0.2-2.5-2.2c0.1-19.6,0-39.1,0-58.7c0-9.6,0-19.2,0-28.7
		c0-1.7,0.4-2.2,2.2-2.2c23.9,0.1,47.8,0.1,71.7,0c1.8,0,2.2,0.5,2.2,2.2c-0.1,15.1,0,30.1,0,45.2
		C135.1,107.7,135.8,108.5,139.1,109.4z"/>
	<path class="st2" d="M183.6,248.4c0-63.8,0-127.6,0-191.5c3.3,0,6.7,0,10-0.2c1.2,0,1.6,0.4,1.5,1.6c0,0.4,0,0.8,0,1.2
		c0,62,0,124,0.1,186.1c0,2.2-0.5,3-2.8,2.8C189.5,248.3,186.5,248.4,183.6,248.4z"/>
	<path class="st3" d="M64.5,49.2c5.3-5.3,10.6-9.9,15.1-15.3c4.7-5.7,10-7.5,17.4-7.3c19.8,0.6,39.6,0.2,59.4,0.2c0.9,0,1.8,0,2.7,0
		c0.1,0.2,0.3,0.4,0.4,0.7c-1.1,1-2.3,1.9-3.3,2.9c-5.8,5.8-11.7,11.6-17.5,17.5c-0.9,0.9-1.8,1.5-3.2,1.5c-23.1,0-46.3,0-69.4,0
		C65.9,49.3,65.5,49.2,64.5,49.2z"/>
	<path class="st1" d="M153.6,19.2c-4.9,0-9.8,0.1-14.7,0.1c-15.8,0-31.6,0-47.4,0c-1.8,0-2.6-0.3-2.4-2.3c0.2-1.7,0-3.5,0-5.2
		c0.1-2.9,1.4-4.3,4.3-4.3c8.2,0,16.3,0,24.5,0c11.7,0,23.5,0,35.2,0.1C154.2,11.4,153.5,15.3,153.6,19.2z"/>
	<path class="st1" d="M189.8,49.2c-14.1,0-27.6,0-41,0c-0.4-0.7,0.2-1,0.5-1.3c6.1-6.1,12.2-12.2,18.3-18.4c0.6-0.6,1-1.5,2.1-0.4
		C176.2,35.7,182.8,42.2,189.8,49.2z"/>
	<path class="st2" d="M153.6,19.2c0-3.9,0.6-7.8-0.5-11.6c2.6,0,5.3-0.1,7.9-0.1c2.6,0,4,1.4,4.1,4c0.1,2.1,0,4.3,0,6.5
		c0,1.1-0.4,1.5-1.4,1.4C160.3,19.2,157,19.2,153.6,19.2z"/>
	<path class="st4" d="M213.3,66.4c-17.1,17.3-34.3,34.5-51.4,51.8c-7.5,7.5-7.5,12,0,19.5c17.1,17.3,34.3,34.5,51.4,51.8
		c-5.8,10-15.1,16.7-23.2,24.5c-17.3-17.1-34.6-34.3-51.8-51.4c-8.6-8.5-12.3-8.5-21,0.2c-23.2,23.2-46.4,46.3-69.5,69.6
		c-3.4,3.4-5.3,3.6-8.5,0c-5-5.6-10.3-10.9-15.9-15.9c-3.7-3.3-3.2-5.2,0.1-8.5c23.3-23,46.5-46.3,69.6-69.5c8.4-8.4,8.4-12.6,0-21
		C70,94.3,46.9,71,23.6,48c-3.3-3.3-3.8-5.2-0.1-8.5c5.6-5,10.9-10.3,15.9-15.9c3.2-3.6,5.1-3.5,8.5,0c22.7,23,45.6,45.8,68.5,68.7
		c10,10,13.1,10,23,0.2c16.9-16.8,33.9-33.7,50.9-50.5c3.5,3.3,7.2,6.3,10.4,9.8C204.9,56.6,211,59.9,213.3,66.4z"/>
	<path class="st5" d="M213.3,66.4c-2.4-6.5-8.5-9.8-12.8-14.7c-3.2-3.5-6.9-6.6-10.4-9.8c6.4-6.5,12.8-12.9,19-19.5
		c2.2-2.4,3.7-2.4,6,0c5.8,6.1,11.8,12,17.8,17.9c2.4,2.3,3,4,0.3,6.6C226.5,53.3,220,59.9,213.3,66.4z"/>
	<path class="st5" d="M190.2,214c8.1-7.8,17.3-14.5,23.2-24.5c6.6,6.5,13.2,13.1,20,19.5c2.8,2.6,2.1,4.3-0.3,6.6
		c-6.1,5.8-12,11.8-17.8,17.9c-2.3,2.4-3.8,2.4-6,0C203,227,196.5,220.5,190.2,214z"/>
	<path class="st0" d="M212,239C212,239,212,239,212,239c-2.7,0-4.7-1.6-5.9-2.9c-4.4-4.7-9.1-9.3-13.6-13.9
		c-1.8-1.8-3.6-3.6-5.4-5.4l-15.5-15.4c-12.1-12-24.2-24-36.3-36c-7-6.9-8.3-6.9-15.4,0.2c-4.9,4.9-9.9,9.9-14.8,14.8
		c-17.9,17.9-36.5,36.4-54.6,54.8c-1.9,1.9-4.3,3.9-7.4,3.8c-3.1-0.1-5.3-2.2-6.9-4c-4.8-5.4-10.1-10.7-15.6-15.6
		c-1.6-1.5-3.8-3.8-3.9-6.9c-0.1-3.1,1.9-5.5,3.9-7.4c18.7-18.5,37.7-37.5,56-55.8l13.6-13.7c6.9-6.9,6.9-8.5,0-15.4l-13.6-13.6
		c-18.3-18.4-37.3-37.3-56-55.9c-2-1.9-4-4.3-3.9-7.5c0.1-3.1,2.3-5.4,3.9-6.9c5.4-4.9,10.7-10.1,15.6-15.6c1.6-1.8,3.9-3.9,7-4
		c3.1-0.1,5.5,1.9,7.3,3.8c17.3,17.5,35,35.3,52.2,52.4c5.4,5.4,10.8,10.5,16.3,15.9c3.1,3.1,6.6,6,8.7,6c0,0,0,0,0,0
		c2.1,0,5.3-2.6,8.6-5.8c12.1-12,24.1-23.8,36.2-35.7L187.2,39c1.8-1.8,3.6-3.6,5.4-5.4c4.5-4.6,9.1-9.2,13.5-13.9
		c1.2-1.3,3.2-3,5.9-3c2.7,0,4.7,1.7,5.9,3c5.2,5.5,11,11.3,17.7,17.8c1.5,1.5,3.3,3.6,3.3,6.4c0,2.1-1,4.1-3.1,6
		c-4.8,4.5-9.6,9.2-14.2,13.8c-1.9,1.9-3.8,3.8-5.7,5.6l-14.9,15c-12.2,12.2-24.3,24.5-36.5,36.7c-5.9,6-5.9,7.9,0,13.9
		c12.6,12.7,25.2,25.4,37.8,38.1l13.6,13.7c1.9,1.8,3.8,3.7,5.7,5.6c4.6,4.6,9.4,9.3,14.2,13.8l0,0c2.1,1.9,3.1,3.9,3.1,6
		c0,2.8-1.8,4.9-3.3,6.4c-6.7,6.4-12.5,12.1-17.7,17.6C216.7,237.5,214.8,239,212,239z M127.8,152.2c4.1,0,8.2,2.5,13.2,7.5
		c12.1,12,24.2,24,36.3,36l15.6,15.4c1.8,1.9,3.6,3.7,5.4,5.5c4.5,4.6,9.2,9.3,13.7,14.1c0,0,0.1,0.1,0.1,0.1c0,0,0.1-0.1,0.1-0.1
		c5.3-5.6,11.2-11.5,18-18c0.2-0.2,0.4-0.4,0.6-0.6c-0.1-0.1-0.2-0.2-0.3-0.3l0,0c-4.9-4.6-9.7-9.3-14.4-14
		c-1.9-1.9-3.8-3.7-5.7-5.6l-13.6-13.7c-12.6-12.7-25.2-25.4-37.8-38.1c-9-9.1-9-16.1,0-25.2c12.2-12.2,24.3-24.5,36.5-36.7l15-15.1
		c1.9-1.9,3.8-3.8,5.7-5.7c4.7-4.6,9.5-9.4,14.4-13.9c0.1-0.1,0.2-0.2,0.3-0.3c-0.1-0.2-0.3-0.3-0.6-0.6c-6.8-6.5-12.6-12.4-18-18
		c0,0-0.1-0.1-0.1-0.1c0,0-0.1,0.1-0.1,0.1c-4.5,4.8-9.2,9.5-13.7,14.1c-1.8,1.8-3.6,3.7-5.4,5.5l-14.7,14.6
		c-12.1,12-24.1,23.9-36.2,35.9c-11.4,11.4-17.1,11.3-28.6-0.2c-5.4-5.4-10.8-10.8-16.3-16.2C79.9,61.6,62.2,43.9,44.8,26.3
		c-0.7-0.7-1.2-1.1-1.4-1.3c-0.2,0.2-0.6,0.5-1.2,1.2C37.1,31.9,31.6,37.4,26,42.5c-0.6,0.5-0.9,0.9-1.1,1.1
		c0.2,0.3,0.6,0.8,1.4,1.6C45,63.7,64,82.7,82.3,101.1l13.6,13.6c10,10,10,16.7,0,26.7L82.2,155c-18.3,18.3-37.2,37.3-56,55.8
		c-0.8,0.8-1.2,1.3-1.4,1.5c0.2,0.2,0.5,0.6,1.1,1.2c5.7,5.1,11.2,10.6,16.2,16.2c0.6,0.6,0.9,1,1.2,1.1c0.3-0.2,0.7-0.6,1.5-1.3
		c18.1-18.4,36.7-36.9,54.7-54.8c4.9-4.9,9.9-9.9,14.8-14.8C119.5,154.8,123.6,152.2,127.8,152.2z"/>
</g>
</svg>
