<?xml version="1.0" encoding="utf-8"?>
<!-- Generator: Adobe Illustrator 19.1.0, SVG Export Plug-In . SVG Version: 6.00 Build 0)  -->
<svg version="1.1" id="Layer_1" xmlns="http://www.w3.org/2000/svg" xmlns:xlink="http://www.w3.org/1999/xlink" x="0px" y="0px"
	 viewBox="0 0 256 256" style="enable-background:new 0 0 256 256;" xml:space="preserve">
<style type="text/css">
	.st0{fill:#64F2E8;}
	.st1{fill:#05E2D1;}
	.st2{fill:#2FAFBE;}
</style>
<g>
	<path class="st0" d="M178.9,233.1c-7.3,5.7-16.6,10.7-16.6,10.7c-1-0.2-1.9-0.2-2.6,0.8c-6.7,2.5-13.7,2.5-20.8,3.1
		c-2.9,0.3-6.2,0.4-6.3,4.7c-3.3,0-6.5,0-9.8,0c-0.4-4-3.3-4.3-6.5-4.7c-47.3-5.7-81.3-30.2-99.8-73.9
		C-13.4,103,31.8,22.2,107.5,9.6c18-3,35.8-2.5,53.2,3.2c0.6,0.9,1.3,1,2.3,0.7c0,0,0,0,0,0c0.1,1.2,1.2,1.5,2.1,1.9
		c16.4,7.9,30.6,18.4,42.4,32.4c17.4,20.6,27.2,44.3,29.2,71.1c1.1,15-0.4,29.8-4.7,44.3C222.9,193.1,204.8,216,178.9,233.1
		 M123,31.1c-1.1-2.7-3.1-3.6-5.9-3.3c-17.7,2.2-33.8,8.2-48.3,18.7c-3.5,2.5-4,4.9-0.8,8c22.1,22,44.1,44,66,66
		c2,2,4.1,2.7,6.7,1.7c2.2,2.2,4.5,4.4,6.7,6.6c-1.4,2.9-0.2,4.9,1.9,7c17.1,17,34.1,34.1,51.2,51.1c4.4,4.4,6,4.2,9.7-1
		c14.5-20.9,20.3-44,17.7-69.4c-4.7-45.7-43.3-84.4-88.9-88.7c-3-0.3-5.3,0.2-6.4,3.3C129.5,31.1,126.2,31.1,123,31.1z M127.9,228.7
		c20.8,0,40.7-6.2,57.6-18c5.6-3.9,5.7-5.2,1-9.9c-43.8-43.8-87.6-87.5-131.4-131.3c-4.5-4.5-6.1-4.4-9.7,0.7
		c-11.3,16-17.5,33.9-18.3,53.5C24.8,181,70.5,228.6,127.9,228.7z"/>
	<path class="st1" d="M159.7,244.7c5.3-3.7,13.9-8.1,19.1-11.6c25.9-17.1,44-40,53-70c4.3-14.5,5.9-29.3,4.7-44.3
		c-2-26.8-11.8-50.5-29.2-71.1c-11.8-14-26-24.6-42.4-32.4c-0.9-0.4-6.9-2.7-7.1-3.9c14.6,2.5,25.7,9.2,34.8,15.4
		c40.2,27.4,59.6,65.7,54.4,114c-5.2,48.7-32.7,82-78.3,100.2C167,241.8,162,244.8,159.7,244.7z"/>
	<path class="st2" d="M251.4,94.6C236.8,42.2,192,4.8,137.8,0.7c-9.1-0.7-13.8-1-20.1-0.4s-12.6,1.8-19,3.2
		C50.1,14.1,9.6,56.8,1.8,105.8c0,0-3.9,26.2,0.9,49.1c10.4,49.1,50.4,88.7,99.4,98.4c0,0,25.2,5.8,48.7,0.6
		c3.9-0.8,7.7-1.6,11.4-2.8c52.1-16.5,82.2-51.9,92.3-105.4C254.6,145.6,258.4,119.6,251.4,94.6z M163,13.4
		c10.9,2.3,20.7,7.2,29.8,13.4c40.2,27.4,59.6,65.7,54.4,114c-5.2,48.7-32.8,81.9-78.3,100.2c-13.3,5.4-30,6.7-30,6.7
		c-10.6,1.3-22.5-0.1-22.5-0.1c-47.3-5.7-81.3-30.2-99.8-73.9C-13.4,103,31.8,22.2,107.5,9.6c18-3,35.8-2.5,53.2,3.2"/>
	<path class="st2" d="M227.9,116.6c-4.7-45.7-43.3-84.4-88.9-88.7c-10.3-2.3-22,0-22,0c-17.7,2.2-33.8,8.2-48.3,18.7
		c-3.5,2.5-4,4.9-0.8,8c21.3,21.2,42.5,42.4,63.7,63.7l-0.1,0.1l19,19l0.1-0.1c16.7,16.6,33.3,33.2,49.9,49.8c4.4,4.4,6,4.2,9.7-1
		C224.7,165,230.5,142,227.9,116.6z M207.2,176.9c-1.9,3-2.9,3.4-5.6,0.7c-15.4-15.6-31-31.1-46.5-46.6c-0.6-0.6-1.1-1.1-1.7-1.6
		l-12.7-12.5c-0.5-0.8-1.3-1.5-2-2.3c-20.1-20.1-40.2-40.2-60.4-60.2c-3-3-2.4-4,0.8-5.8c11.1-6.5,22.8-11,35.6-12.7
		c0.6,0,1.4-0.1,2.2-0.3c0.8-0.1,1.6-0.2,2.3-0.4c8.2-1.1,14.9-0.3,17.5,0.1c0.4,0.1,0.8,0.2,1.2,0.2c2.8,0.3,5.6,0.7,8.4,1.2
		C209.1,48.3,241.6,123.2,207.2,176.9z"/>
	<path class="st2" d="M127.9,228.7c-57.4-0.1-103.1-47.6-100.7-105c0.8-19.6,7-37.5,18.3-53.5c3.6-5.1,5.2-5.2,9.7-0.7
		c43.8,43.8,87.6,87.5,131.4,131.3c4.7,4.7,4.6,6-1,9.9C168.5,222.5,148.7,228.7,127.9,228.7z M179.8,205.1
		c-0.3-0.4-0.5-0.9-0.8-1.2C137.1,162,95.1,120.1,53.2,78.2c-2.2-2.2-3.1-1.8-4.5,0.7c-16.8,28.4-19.2,58-5.5,87.8
		C68.7,222.3,135.6,235.8,179.8,205.1z"/>
</g>
</svg>
